<svg width="652" height="346" viewBox="0 0 652 346" fill="none" xmlns="http://www.w3.org/2000/svg">
<g clip-path="url(#clip0_93_11917)">
<path d="M538.91 62.1904C531.17 59.5204 516.72 59.2504 510.89 59.2804C492.1 59.3304 481.35 62.1604 473.79 69.0504C472.7 70.0404 471.7 71.1204 470.78 72.2604C465.62 69.9804 459.99 68.4504 454.04 67.7804C436.31 65.7704 418.45 71.6004 404.25 83.8604C403.49 83.0904 402.7 82.3204 401.87 81.5604C386.6 67.5104 362.87 67.0604 347.03 70.9704C328.32 75.2604 309.79 83.2404 300.63 111.87C300.4 112.59 300.22 113.31 300.05 114.05C298.72 113.52 297.37 113.01 295.95 112.54C295.64 112.44 295.32 112.34 295 112.25C284.55 109.24 274.01 109.52 264.45 112.74C261.63 106.92 257.37 101.87 251.97 98.2204C251.92 98.1904 251.88 98.1604 251.83 98.1304C238.93 89.5504 221.16 89.0204 207.61 96.8304C207.2 97.0704 206.81 97.3204 206.42 97.5704C204.7 95.7204 202.86 93.9504 200.86 92.2804C183.49 77.7104 163.24 73.0104 145.62 69.7504C129.23 66.7104 116.07 68.8304 106.48 76.0404C99.0797 81.6004 94.4997 89.8004 93.5697 99.1404C88.9897 145.32 95.1197 233.4 98.1797 252.26C100.2 264.72 109.92 278.9 131.1 281.36C133.53 281.64 135.97 281.76 138.35 281.76C144.5 281.76 150.28 281.01 154.5 280.45C155.29 280.35 156.04 280.25 156.73 280.17C157.66 280.06 158.58 279.89 159.49 279.68C174.01 276.25 187.93 269.02 199.54 259.01C201.98 261.22 204.87 263.09 208.15 264.52C214.38 267.24 222.22 268.55 232.81 268.65C232.98 268.65 233.14 268.65 233.31 268.65C243.8 268.65 251.17 265.58 256.3 261.8C262.7 265.79 269.64 268.12 276.42 269.02C279.5 269.49 282.51 269.73 285.45 269.73C295.83 269.73 305.23 266.8 313.03 261.26C318.71 268.88 325.6 274.21 333.65 277.2C347.94 282.51 371.24 284.41 389.92 272.31C393.22 270.17 396.31 267.68 399.17 264.89C400.5 266.54 401.84 267.93 403.17 269.16C413.57 278.76 427.38 283.55 442.07 282.67C451.4 282.11 460.67 279.22 468.91 274.5C475.69 280.7 484.85 284.83 495.48 285.89C496.65 286.01 497.82 286.06 498.99 286.06C508.12 286.06 517.32 282.58 524.67 276.23C532.99 269.06 538.05 259.03 538.55 248.69C539.01 239.27 537.06 231.95 534.33 226.41C535.97 222.45 536.51 218.89 536.82 216.83C537.14 214.89 539.34 204 541.48 193.46C547.57 163.4 556.76 117.96 559.3 99.6704C562.27 78.2704 550.72 66.2804 538.91 62.2004V62.1904Z" fill="white"/>
<path d="M534.82 74.0106C528.32 71.7606 511.63 71.7706 510.92 71.7806C491.86 71.8306 485.71 75.1006 482.21 78.2906C479.13 81.1006 477.19 85.1906 476.77 89.8206C476.74 90.1506 476.71 90.5206 476.68 90.9106C470.47 85.0706 462.09 81.2806 452.63 80.2106C436.98 78.4406 421.09 84.3706 409.03 96.4806C406.76 98.7606 404.89 101.151 403.34 103.591C400.97 99.0806 397.75 94.7606 393.4 90.7606C381.74 80.0406 362.73 79.9406 349.92 83.1306C331.95 87.2406 319.42 94.1406 312.53 115.681C312.36 116.211 312.23 116.741 312.13 117.291C311.2 122.501 310.48 128.491 309.94 134.861C305.48 130.441 299.65 126.941 292.01 124.401C291.85 124.351 291.7 124.301 291.54 124.251C278.63 120.531 265.54 123.471 255.78 131.881C255.78 131.771 255.8 131.671 255.81 131.561C256.39 122.281 252.24 113.481 244.91 108.521C235.87 102.501 223.39 102.151 213.85 107.641C209.98 109.871 206.92 112.901 204.79 116.441C201.72 111.061 197.81 106.011 192.83 101.831C177.79 89.2106 159.4 84.9806 143.35 82.0106C130.55 79.6406 120.67 80.9806 114 86.0006C109.43 89.4306 106.6 94.5306 106.02 100.341C101.62 144.701 107.62 232.321 110.53 250.221C111.33 255.161 115.09 266.881 132.56 268.911C134.49 269.131 136.45 269.231 138.4 269.231C143.68 269.231 148.84 268.561 152.9 268.031C153.74 267.921 154.53 267.821 155.25 267.731C155.71 267.671 156.17 267.591 156.63 267.481C171.83 263.891 186.31 255.481 197.41 243.791C199.38 241.721 201.14 239.421 202.74 236.961C202.84 238.821 203.07 240.821 203.66 242.831C206.94 255.881 226.41 256.061 232.93 256.121C233.15 256.121 233.41 256.121 233.69 256.121C237.55 256.121 246.58 255.691 252.5 248.221C253.45 247.041 254.22 245.791 254.85 244.521C260.86 251.191 268.75 255.391 278.18 256.611C280.67 257.001 283.1 257.191 285.44 257.191C298.19 257.191 308.62 251.501 315.3 240.741C315.42 240.561 315.53 240.381 315.64 240.201C321 253.431 328.51 261.921 338 265.451C340.57 266.401 363.64 274.411 383.12 261.791C390.66 256.911 396.88 249.681 401.29 240.991C404.47 251.721 408.22 256.781 411.65 259.941C419.52 267.211 430.07 270.831 441.32 270.151C452.29 269.491 463.16 264.781 471.42 257.331C475.63 266.101 484.79 272.221 496.73 273.411C497.49 273.491 498.25 273.521 499.02 273.521C505.17 273.521 511.44 271.111 516.53 266.721C522.27 261.781 525.75 254.971 526.09 248.041C526.52 239.211 524.35 232.011 519.63 226.621C520.48 225.701 521.23 224.661 521.87 223.521C523.67 220.311 524.17 217.021 524.5 214.841C524.75 213.161 526.94 202.371 529.25 190.951C535.3 161.041 544.46 115.831 546.94 97.9206C549.3 80.9106 539.27 75.5106 534.85 73.9806L534.82 74.0106Z" fill="#160830"/>
<path d="M118.44 101.59C119.41 91.8601 133.45 92.9101 141.06 94.3201C155.18 96.9301 171.76 100.5 184.79 111.42C196.72 121.43 201.7 139.23 203.12 154.78C206.04 186.78 202.07 220.73 188.34 235.19C178.63 245.42 166.22 252.38 153.75 255.32C144.36 256.45 124.78 260.08 122.86 248.23C120.17 231.65 114.13 145.1 118.45 101.59H118.44ZM168.78 162.75C167.71 154.14 163.44 132.24 149.97 131.95C145.59 131.86 146.48 134.75 146.92 139.17C148.72 157.02 150.08 199.17 150.95 209.49C151.2 212.44 151.03 218.9 155.79 216.54C161.37 213.77 171.01 203.38 170.33 184.22C170.14 178.96 169.6 169.46 168.77 162.76L168.78 162.75Z" fill="white"/>
<path d="M215.73 239.611C214.93 237.281 215.26 233.471 215.03 230.791C214.43 214.811 211.92 167.971 213.33 155.861C214.03 149.811 221.83 150.401 227.95 150.661C242.65 151.271 244.45 153.421 244.45 160.891C245.1 184.521 244.42 207.521 245.01 231.181C245.02 234.341 244.68 238.061 242.74 240.431C240.51 243.271 236.49 243.661 233.04 243.631C216.25 243.481 215.74 239.611 215.74 239.611H215.73ZM213.88 129.761C213.13 117.551 228.78 112.821 237.98 118.941C245.37 123.931 245.23 136.901 237.03 141.041C228 145.901 213.94 141.511 213.89 130.041V129.751L213.88 129.761Z" fill="white"/>
<path d="M254.121 204.78C253.701 191.22 253.491 177.54 254.521 163.87C255.081 156.64 256.711 149.95 260.091 145.38C267.671 135.63 278.611 133.55 288.071 136.28C304.481 141.72 310.051 151.95 311.441 178.3C312.121 196.96 314.241 219.94 304.771 234.02C298.431 244.39 288.621 245.65 279.941 244.26C265.081 242.41 254.811 229.36 254.141 205.13L254.121 204.79V204.78ZM287.801 206.71C287.741 195.48 287.881 184.35 287.331 173.15C286.701 159.74 280.031 159.35 278.381 171.22C277.621 177.69 278.521 185.65 278.331 192.76C278.401 199.35 278.021 207.28 279.521 212.83C282.041 222.17 287.721 217.54 287.791 207.06V206.72L287.801 206.71Z" fill="white"/>
<path d="M324.43 119.5C329.48 103.7 337.05 98.8801 352.82 95.3001C363.52 92.6101 377.7 93.3101 384.93 99.9701C400.14 113.97 397.17 133.54 396.43 152.41C396.12 155.77 396.59 157.62 392.56 157.99C385.35 158.89 378.1 159.25 370.84 159.39C368.15 159.37 364.01 159.78 363.72 156.28C363.15 151.84 364.9 146.79 362.6 142.69C360.71 139.28 355.37 139.07 353.06 142.16C349.28 147.21 350.41 161.92 351.06 178.89C351.11 180.14 352.65 199.12 353.32 207.27C353.51 209.54 355.24 211.37 357.5 211.67C361.11 212.15 366.07 212.21 367 209.14C367.93 206.07 368.11 198.38 367.85 195.05C367.75 193.7 366.61 192.67 365.26 192.7C362.69 192.76 360.44 194.01 360.09 191.26C359.12 183.59 359.04 181.45 359.36 173.76C359.55 169.06 360.42 169.02 363.35 168.91C369.59 168.69 392.5 166.72 394.93 169.49C397.36 172.26 396.96 203.49 395.91 214.87C394.64 228.58 388.3 243.55 376.32 251.31C363.52 259.6 347.16 255.53 342.35 253.74C334.03 250.65 328.81 240.63 325.68 231.38C322.9 223.18 321.47 214.59 321.22 205.94C320.71 188.23 320 144.3 324.43 119.49V119.5ZM530.74 85.8201C526.18 84.2401 495.91 82.7201 490.63 87.5301C489.77 88.3101 489.33 89.6801 489.22 90.9601C488.21 102.03 488.59 157.55 488.05 213.26C488.01 217.12 490.03 217.98 493.77 218.34C498.89 218.83 502.66 219.1 507.28 219.32C511.09 219.5 511.63 216.23 512.12 212.99C513.09 206.61 531.01 121.63 534.54 96.2201C535.11 92.1201 535.15 87.3401 530.74 85.8201ZM420.12 250.78C433.36 263 454.97 258.03 466.28 244.72C476.92 232.33 475.51 214.79 476.13 199.48C476.16 176.38 483.38 123.06 471.84 104.56C462.79 90.0501 436.62 86.4801 417.88 105.3C410.54 112.68 408.94 121.85 407.14 131.61C406.36 135.81 402.7 234.71 420.11 250.78H420.12ZM436 141.81C436.58 133.76 439.92 132.96 442.03 132.86C444.23 132.76 446.47 133.62 446.85 143.24C447.56 161.38 447.32 187.32 446.53 206.7C446.26 213.31 444.54 217.21 441.66 217.58C438.35 218 437.77 213.15 437.2 208.37C435.4 193.31 435.46 149.41 436.01 141.81H436ZM497.45 230.04C485.69 229.74 481.79 237.35 481.37 245.04C480.88 254.05 487.67 259.97 497.94 260.99C505.19 261.71 513.21 254.87 513.57 247.46C514.11 236.41 509.01 230.34 497.45 230.04Z" fill="#F75BC8"/>
<path d="M474.06 215.851C471.58 214.621 470.12 212.961 469.65 210.491C468.96 206.891 471.73 203.101 475.38 202.681C476.12 202.601 476.4 202.861 476.41 203.591C476.46 208.021 476.22 212.431 475.99 216.851C475.8 220.431 475.4 223.981 474.72 227.491C473.2 235.351 469.92 242.321 463.97 247.831C459.62 251.861 454.62 254.851 448.87 256.471C448.55 256.561 448.12 256.891 447.9 256.491C447.71 256.151 448.12 255.851 448.36 255.591C449.5 254.341 450.98 253.711 452.67 253.371C449.97 251.221 449.45 250.421 448.81 247.321C447.41 249.871 445.39 251.341 442.29 251.451C444.45 252.351 445.84 253.691 446.59 255.671C446.93 256.571 446.94 257.071 445.74 257.281C438.9 258.531 432.26 258.201 425.94 255.021C424.52 254.301 423.21 253.391 421.91 252.461C421 251.811 421.39 251.351 421.93 250.861C423.8 249.161 425.97 248.441 428.46 249.181C430.91 249.911 432.48 251.561 433.17 254.021C433.32 254.541 433.38 255.081 433.48 255.651C435.28 252.531 435.73 252.191 439.76 250.961C436.38 248.941 434.87 246.141 436.09 242.311C436.94 239.641 439.33 238.011 442.62 237.771C440.91 236.891 439.57 235.821 438.83 234.181C438.07 232.501 438.02 230.771 438.66 229.051C439.63 226.431 442.42 224.601 445.13 224.771C448.49 224.981 450.69 227.031 451.63 230.991C453.05 228.351 455.06 226.801 458.26 226.741C456.41 225.931 455.12 224.801 454.38 223.121C453.66 221.471 453.57 219.811 454.19 218.111C455.18 215.391 458.05 213.451 460.8 213.661C464.38 213.931 466.59 216.211 467.33 220.571C468.6 217.641 470.74 216.091 474.08 215.821L474.06 215.851ZM449.31 244.621C450.53 241.821 452.56 240.471 455.42 239.961C452.77 238.611 451.43 236.601 451.2 233.691C449.94 236.381 447.99 237.841 444.91 238.171C447.6 239.611 449.11 241.541 449.32 244.631L449.31 244.621ZM466.87 222.771C465.71 225.411 463.63 226.751 460.67 227.201C463.27 228.531 464.63 230.441 464.94 233.261C466.12 230.841 467.95 229.451 470.64 228.921C468.23 227.391 467.11 225.381 466.86 222.761L466.87 222.771ZM458.55 240.491C459.69 241.081 460.56 241.691 461.28 242.511C462.03 243.351 462.34 244.431 462.93 245.511C464.09 243.961 465.46 242.911 467.22 242.421C467.79 242.261 467.75 242.031 467.34 241.721C465.59 240.421 464.67 238.641 464.41 236.311C463.17 238.791 461.27 240.081 458.55 240.501V240.491Z" fill="#EA00A4"/>
<path d="M495.8 215.561C495.08 216.251 494.52 216.881 493.86 217.391C491.82 218.951 488.87 217.861 488.27 215.341C487.83 213.491 487.88 211.601 488.07 209.741C488.19 208.541 488.22 207.361 488.22 206.171C488.22 205.471 488.31 204.901 489.43 204.711C488.29 204.331 488.22 203.671 488.22 202.901C488.24 199.861 488.26 196.831 488.21 193.791C488.19 192.831 488.58 192.351 489.43 192.011C493.7 190.291 498.32 193.281 498.75 198.221C499.42 196.961 500.13 195.891 501.22 195.111C502.32 194.321 503.57 193.951 504.89 193.711C501.31 191.021 500.2 188.401 501.25 185.191C502.25 182.151 504.67 180.611 508.62 180.511C504.99 179.021 503.06 176.351 503.45 173.351C503.9 169.931 506.24 167.601 509.66 167.201C512.92 166.811 515.26 168.811 517.06 173.561C517.77 172.231 518.62 171.081 519.94 170.401C520.22 170.261 520.54 169.991 520.83 170.191C521.16 170.421 521.04 170.841 520.97 171.191C520.35 174.271 519.73 177.341 519.12 180.421C519.06 180.711 519 181.021 518.71 181.091C518.39 181.171 518.23 180.861 518.06 180.641C517.1 179.381 516.49 177.991 516.56 176.031C515.2 179.171 512.95 180.491 509.69 180.701C512.68 181.881 514.28 183.921 514.64 187.091C515.39 185.671 516.22 184.561 517.45 183.821C517.69 183.681 517.95 183.471 518.22 183.661C518.43 183.801 518.39 184.101 518.34 184.331C517.71 187.401 517.09 190.481 516.45 193.551C516.4 193.801 516.22 194.031 516.06 194.351C514.78 193.221 514.46 191.751 514.11 190.151C513.38 191.241 512.72 192.301 511.63 192.991C510.58 193.661 509.45 194.091 507.85 194.181C510.4 195.361 511.74 197.151 512.34 199.691C513.22 198.621 513.91 197.681 514.92 197.091C515.12 196.971 515.34 196.781 515.57 196.961C515.66 197.031 515.68 197.251 515.65 197.391C514.97 200.811 514.27 204.231 513.53 207.861C512.31 206.861 512.02 205.581 511.55 204.151C510.29 206.121 508.64 207.231 506.36 207.761C508.21 209.021 509.42 210.461 509.99 212.541C510.78 211.671 511.38 210.811 512.27 210.281C512.48 210.161 512.7 209.971 512.93 210.121C513.16 210.261 513.09 210.541 513.05 210.781C512.67 212.651 512.3 214.511 511.93 216.381C511.76 217.231 511.32 217.961 510.75 218.561C510.41 218.921 509.8 219.731 509.35 218.541C509.23 218.231 508.96 218.191 508.8 218.431C507.61 220.281 505.76 219.581 504.2 219.461C502.54 219.341 500.86 219.221 499.21 219.151C497.69 219.081 496.94 218.441 496.42 217.221C496.2 216.711 496.03 216.191 495.79 215.581L495.8 215.561ZM498.27 200.911C496.99 203.571 495.01 204.851 492.23 205.231C494.59 206.311 495.98 208.011 496.7 210.551C497.99 208.581 499.66 207.511 502.02 206.981C499.72 205.521 498.6 203.591 498.27 200.911Z" fill="#EA00A4"/>
<path d="M492.1 236.291C493.11 235.081 494.22 234.191 495.58 233.651C496.19 233.411 495.86 233.141 495.58 232.881C495.02 232.361 494.55 231.771 494.15 231.121C493.74 230.451 493.94 230.001 494.68 229.961C498.49 229.751 502.25 230.001 505.86 231.391C506.48 231.631 506.38 231.961 506.01 232.381C505.18 233.321 504.07 233.881 502.9 234.521C503.88 235.361 504.69 236.241 505.22 237.321C505.42 237.731 505.69 237.841 506.05 237.481C506.84 236.681 507.83 236.161 508.89 235.641C507.99 234.541 507.03 233.561 506.76 232.031C507.86 232.221 508.58 232.901 509.3 233.501C512.01 235.761 513.31 238.801 513.8 242.211C514.16 244.701 514.33 247.211 513.71 249.691C512.67 253.861 510.08 256.871 506.51 259.141C505.5 259.791 504.41 260.271 503.28 260.651C502.7 260.851 502.13 261.101 501.78 260.301C501.66 260.021 501.43 259.981 501.2 260.201C499.48 261.871 497.51 261.181 495.55 260.871C494.12 260.641 492.78 260.131 491.41 259.741C490.19 259.391 489.23 258.771 488.79 257.521C488.62 257.051 488.43 256.671 487.89 257.221C487.39 257.721 486.96 257.411 486.54 257.041C483.54 254.411 481.65 251.271 481.46 247.151C481.23 242.281 482.21 237.841 485.49 234.091C486.13 233.351 487.01 232.821 487.81 232.231C488.32 231.851 488.78 232.121 489.23 232.431C490.6 233.361 491.38 234.741 492.09 236.301L492.1 236.291ZM493.37 246.681C492.37 245.681 491.61 244.621 491.16 243.371C490.94 242.751 490.69 243.021 490.41 243.321C489.65 244.161 488.73 244.781 487.68 245.211C487.25 245.381 486.93 245.571 487.46 246.021C488.3 246.721 488.94 247.581 489.42 248.561C489.61 248.941 489.84 249.191 490.22 248.781C491.08 247.871 492.17 247.301 493.36 246.681H493.37ZM505.85 248.801C505.81 248.731 505.79 248.651 505.74 248.591C505.18 247.831 504.75 246.841 504 246.391C503.53 246.111 502.91 247.151 502.25 247.441C502.03 247.531 501.83 247.671 501.61 247.771C501.2 247.961 501.25 248.181 501.48 248.521C503.06 250.871 503.11 250.891 505.41 249.301C505.6 249.171 505.87 249.121 505.85 248.801Z" fill="#EA00A4"/>
<path d="M435.6 242.271C435.6 245.991 432.71 248.811 428.94 248.791C425.29 248.771 422.47 245.891 422.48 242.201C422.48 238.481 425.37 235.661 429.14 235.681C432.79 235.701 435.61 238.581 435.6 242.271Z" fill="#EA00A4"/>
<path d="M488.23 185.01C488.23 181.17 489.97 178.87 493.14 178.39C496.49 177.89 499.6 179.72 500.63 182.8C501.68 185.96 500.25 189.38 497.24 190.9C494.39 192.34 490.87 191.4 488.9 188.78C487.97 187.54 488.35 186.18 488.24 185L488.23 185.01Z" fill="#EA00A4"/>
<path d="M462.89 200.451C466.51 200.451 469.43 203.381 469.42 207.001C469.42 210.621 466.49 213.531 462.86 213.531C459.24 213.531 456.32 210.601 456.33 206.981C456.33 203.361 459.26 200.451 462.89 200.451Z" fill="#EA00A4"/>
<path d="M519.041 162.15C518.161 164.56 516.721 166.4 514.081 167.04C510.621 167.88 507.131 165.781 506.241 162.311C505.361 158.861 507.431 155.331 510.881 154.421C514.331 153.511 517.881 155.541 518.841 158.961C519.141 160.021 519.121 161.091 519.031 162.161L519.041 162.15Z" fill="#EA00A4"/>
<path d="M503.23 171.691C503.27 175.161 500.28 178.201 496.77 178.241C493.3 178.281 490.25 175.291 490.21 171.791C490.17 168.321 493.16 165.281 496.67 165.241C500.14 165.201 503.19 168.191 503.23 171.691Z" fill="#EA00A4"/>
<path d="M431.39 235.511C427.86 235.461 424.85 232.381 424.97 228.941C425.08 225.431 428.05 222.531 431.49 222.581C435.02 222.631 438.03 225.711 437.91 229.151C437.8 232.661 434.83 235.561 431.39 235.511Z" fill="#EA00A4"/>
<path d="M471.6 193.531C471.6 197.141 468.87 199.881 465.24 199.871C461.69 199.871 458.96 197.131 458.95 193.581C458.95 189.971 461.68 187.231 465.31 187.241C468.86 187.241 471.59 189.981 471.6 193.531Z" fill="#EA00A4"/>
<path d="M514.67 153.591C511.14 153.581 508.4 150.801 508.4 147.261C508.4 143.681 511.21 140.931 514.83 140.971C518.34 141.001 521.06 143.801 521.04 147.361C521.02 150.881 518.23 153.611 514.67 153.591Z" fill="#EA00A4"/>
<path d="M499.17 164.611C495.71 164.641 492.82 161.761 492.82 158.311C492.82 154.911 495.66 152.051 499.07 152.031C502.53 152.001 505.42 154.881 505.42 158.331C505.42 161.731 502.58 164.591 499.17 164.611Z" fill="#EA00A4"/>
<path d="M418.03 232.871C414.74 232.901 411.83 230.041 411.77 226.711C411.71 223.401 414.7 220.391 418.03 220.421C421.35 220.451 424.23 223.341 424.23 226.641C424.23 229.941 421.35 232.831 418.03 232.871Z" fill="#EA00A4"/>
<path d="M473.87 180.37C473.87 183.72 471.05 186.55 467.68 186.56C464.32 186.56 461.49 183.74 461.48 180.38C461.48 177.03 464.3 174.2 467.67 174.19C471.03 174.19 473.86 177.01 473.87 180.37Z" fill="#EA00A4"/>
<path d="M523.24 133.811C523.26 137.261 520.58 139.971 517.13 139.981C513.68 139.981 510.98 137.291 510.99 133.841C510.99 130.441 513.64 127.771 517.04 127.731C520.5 127.691 523.22 130.361 523.24 133.811Z" fill="#EA00A4"/>
<path d="M453.801 218.02C453.801 221.43 450.981 224.35 447.551 224.52C444.231 224.69 441.131 222.01 440.801 218.67C440.741 218.11 440.681 217.51 441.521 217.45C443.461 217.3 444.411 215.97 445.131 214.39C445.281 214.07 445.381 213.72 445.491 213.38C446.171 211.35 446.451 211.19 448.621 211.67C451.631 212.34 453.801 215 453.801 218.01V218.02Z" fill="#EA00A4"/>
<path d="M433.88 209.341C434.57 209.341 435.22 209.521 435.87 209.721C437.24 210.141 438.14 210.921 438.25 212.471C438.34 213.751 438.74 215.001 439.48 216.051C440.04 216.861 439.83 217.541 439.48 218.281C438.18 221.051 434.97 222.491 432.05 221.591C429.14 220.701 427.16 217.711 427.6 214.861C428.09 211.661 430.76 209.311 433.87 209.331L433.88 209.341Z" fill="#EA00A4"/>
<path d="M507.59 144.991C507.56 148.351 504.82 150.991 501.41 150.951C498.04 150.921 495.41 148.191 495.44 144.771C495.47 141.411 498.2 138.771 501.62 138.811C504.99 138.841 507.62 141.571 507.59 144.991Z" fill="#EA00A4"/>
<path d="M420.41 207.201C423.63 207.201 426.48 210.091 426.42 213.281C426.36 216.471 423.56 219.231 420.39 219.231C417.17 219.231 414.32 216.341 414.38 213.151C414.44 209.961 417.24 207.201 420.41 207.201Z" fill="#EA00A4"/>
<path d="M470.02 160.951C473.19 160.891 475.99 163.631 476.07 166.861C476.16 170.051 473.3 172.941 470.07 172.941C466.88 172.941 464.1 170.171 464.08 166.971C464.05 163.791 466.8 161.011 470.02 160.951Z" fill="#EA00A4"/>
<path d="M525.52 120.651C525.54 123.831 522.79 126.611 519.57 126.661C516.36 126.711 513.48 123.841 513.52 120.631C513.56 117.421 516.34 114.671 519.53 114.681C522.73 114.691 525.5 117.461 525.52 120.651Z" fill="#EA00A4"/>
<path d="M451.76 185.09C454.55 185.09 456.91 186.82 457.69 189.38C458.5 192.04 457.45 194.83 455.06 196.35C452.85 197.76 449.92 197.54 447.92 195.84C447.27 195.29 446.96 194.67 446.93 193.79C446.86 191.75 447.19 189.74 447.2 187.71C447.2 187.17 447.52 186.83 447.89 186.51C449.03 185.54 450.33 185.01 451.76 185.08V185.09Z" fill="#EA00A4"/>
<path d="M454.24 172.131C457.58 172.131 460.08 174.621 460.09 177.951C460.09 181.341 457.58 183.841 454.18 183.821C450.86 183.801 448.38 181.291 448.39 177.941C448.39 174.621 450.91 172.131 454.24 172.131Z" fill="#EA00A4"/>
<path d="M503.96 137.291C500.64 137.301 498.09 134.791 498.08 131.491C498.07 128.171 500.59 125.631 503.88 125.621C507.2 125.611 509.75 128.121 509.76 131.421C509.77 134.741 507.25 137.281 503.96 137.291Z" fill="#EA00A4"/>
<path d="M527.7 107.261C527.69 110.341 525.01 113.011 521.93 113.021C518.82 113.031 516.07 110.261 516.14 107.171C516.21 104.071 518.91 101.431 521.97 101.471C525.06 101.511 527.72 104.201 527.7 107.261Z" fill="#EA00A4"/>
<path d="M373.38 252.1C370.27 252.12 367.53 249.38 367.56 246.28C367.59 243.2 370.25 240.55 373.33 240.53C376.44 240.51 379.18 243.25 379.15 246.35C379.12 249.43 376.46 252.08 373.38 252.1Z" fill="#EA00A4"/>
<path d="M478.02 153.491C478.05 156.551 475.39 159.251 472.3 159.301C469.2 159.351 466.43 156.601 466.46 153.501C466.48 150.421 469.16 147.751 472.24 147.751C475.31 147.751 478 150.411 478.02 153.491Z" fill="#EA00A4"/>
<path d="M428.59 200.001C428.61 203.111 425.87 205.841 422.76 205.821C419.68 205.791 417.02 203.141 417 200.061C416.98 196.951 419.71 194.221 422.83 194.241C425.91 194.271 428.57 196.921 428.59 200.001Z" fill="#EA00A4"/>
<path d="M462.29 164.521C462.3 167.741 459.83 170.211 456.61 170.191C453.44 170.171 451.01 167.741 450.99 164.571C450.98 161.351 453.45 158.881 456.67 158.901C459.84 158.921 462.27 161.351 462.29 164.521Z" fill="#EA00A4"/>
<path d="M506.09 123.921C502.87 123.921 500.4 121.441 500.43 118.221C500.46 115.051 502.9 112.631 506.07 112.631C509.29 112.631 511.76 115.111 511.73 118.331C511.7 121.501 509.26 123.921 506.09 123.921Z" fill="#EA00A4"/>
<path d="M381.09 232.891C381.09 235.911 378.5 238.471 375.48 238.451C372.46 238.431 369.91 235.831 369.95 232.811C369.99 229.841 372.53 227.321 375.5 227.311C378.52 227.301 381.1 229.871 381.09 232.891Z" fill="#EA00A4"/>
<path d="M425.21 192.161C422.2 192.171 419.6 189.571 419.63 186.561C419.66 183.581 422.2 181.061 425.17 181.051C428.18 181.041 430.78 183.641 430.75 186.651C430.72 189.631 428.18 192.151 425.21 192.161Z" fill="#EA00A4"/>
<path d="M529.87 93.7713C529.91 96.7013 527.371 99.3013 524.401 99.3613C521.431 99.4213 518.771 96.7913 518.771 93.8113C518.771 90.8613 521.34 88.2913 524.3 88.2813C527.25 88.2713 529.83 90.8113 529.87 93.7713Z" fill="#EA00A4"/>
<path d="M449.93 198.291C452.09 198.411 454.09 199.621 455.19 202.071C456.28 204.491 455.88 206.791 454.12 208.751C452.37 210.711 450.14 211.331 447.59 210.601C446.72 210.351 446.29 210.021 446.4 208.851C446.63 206.241 446.82 203.611 446.73 200.971C446.66 198.711 447.14 198.291 449.93 198.281V198.291Z" fill="#EA00A4"/>
<path d="M365.42 243.871C365.46 246.821 362.89 249.401 359.92 249.411C356.95 249.411 354.39 246.841 354.41 243.891C354.43 240.961 356.9 238.481 359.85 238.411C362.78 238.351 365.39 240.901 365.42 243.871Z" fill="#EA00A4"/>
<path d="M464.5 151.071C464.54 153.991 462.08 156.511 459.12 156.571C456.16 156.631 453.57 154.081 453.58 151.101C453.59 148.161 456.08 145.671 459.02 145.661C461.95 145.641 464.46 148.121 464.5 151.071Z" fill="#EA00A4"/>
<path d="M508.49 99.4805C511.56 99.4805 513.85 101.79 513.85 104.86C513.85 107.93 511.54 110.22 508.47 110.22C505.4 110.22 503.11 107.91 503.11 104.84C503.11 101.77 505.42 99.4805 508.49 99.4805Z" fill="#EA00A4"/>
<path d="M478.8 140.421C478.8 140.861 478.8 141.301 478.8 141.741C478.8 144.471 477.44 145.841 474.69 145.881C472.46 145.911 470.31 144.421 469.49 142.301C468.67 140.161 469.29 137.681 471.01 136.201C472.82 134.641 475.32 134.401 477.37 135.561C478.35 136.111 478.97 136.811 478.82 138.041C478.73 138.831 478.8 139.631 478.8 140.431V140.421Z" fill="#EA00A4"/>
<path d="M377.92 214.141C380.8 214.141 383.28 216.641 383.24 219.511C383.2 222.361 380.76 224.761 377.92 224.771C375.04 224.771 372.56 222.271 372.6 219.401C372.64 216.551 375.08 214.151 377.92 214.141Z" fill="#EA00A4"/>
<path d="M427.64 178.49C424.76 178.52 422.27 176.03 422.28 173.16C422.3 170.32 424.72 167.9 427.56 167.87C430.44 167.84 432.93 170.33 432.92 173.2C432.9 176.04 430.49 178.46 427.64 178.49Z" fill="#EA00A4"/>
<path d="M385.77 221.271C385.86 219.501 386.92 217.801 388.95 216.821C390.99 215.841 392.97 216.111 394.81 217.451C395.61 218.031 395.93 218.751 395.74 219.711C395.33 221.771 394.9 223.821 394.32 225.851C394.1 226.631 393.63 227.031 392.86 227.251C389.3 228.271 385.72 225.531 385.76 221.281L385.77 221.271Z" fill="#EA00A4"/>
<path d="M362.34 235.741C359.54 235.761 357.02 233.241 357.05 230.451C357.08 227.671 359.51 225.251 362.29 225.231C365.09 225.211 367.61 227.731 367.58 230.521C367.55 233.301 365.12 235.721 362.34 235.741Z" fill="#EA00A4"/>
<path d="M461.4 132.721C464.23 132.691 466.6 135.011 466.65 137.861C466.7 140.721 464.28 143.161 461.41 143.141C458.57 143.121 456.22 140.771 456.22 137.941C456.22 135.111 458.56 132.751 461.4 132.721Z" fill="#EA00A4"/>
<path d="M411.72 178.951C414.51 178.911 417.03 181.411 417.02 184.211C417.02 186.971 414.61 189.541 411.82 189.421C408.83 189.301 406.74 187.801 406.64 183.711C406.58 181.301 409.06 178.981 411.72 178.951Z" fill="#EA00A4"/>
<path d="M492.96 121.221C491.8 121.271 490.77 120.921 489.81 120.281C488.74 119.571 488.31 118.731 488.59 117.351C488.85 116.091 488.73 114.731 488.7 113.421C488.68 112.621 488.98 112.071 489.61 111.601C491.49 110.181 494.04 110.121 495.98 111.481C497.88 112.811 498.7 115.181 498.04 117.391C497.36 119.671 495.33 121.201 492.97 121.211L492.96 121.221Z" fill="#EA00A4"/>
<path d="M516.01 91.3611C516.03 94.3211 513.85 96.5311 510.91 96.5411C507.95 96.5411 505.75 94.3611 505.75 91.4211C505.75 88.5211 507.91 86.3211 510.79 86.3011C513.76 86.2711 515.99 88.4411 516.01 91.3611Z" fill="#EA00A4"/>
<path d="M422.21 240.071C422.21 242.881 420.43 245.321 417.84 246.151C417.11 246.381 416.65 246.281 416.3 245.551C414.73 242.281 413.61 238.851 412.68 235.361C412.48 234.621 412.93 234.381 413.49 234.151C417.62 232.431 422.22 235.551 422.22 240.081L422.21 240.071Z" fill="#EA00A4"/>
<path d="M351.59 241.551C351.58 244.371 349.3 246.621 346.47 246.621C343.59 246.621 341.33 244.311 341.37 241.411C341.4 238.601 343.71 236.381 346.55 236.401C349.37 236.421 351.61 238.711 351.59 241.551Z" fill="#EA00A4"/>
<path d="M500.38 102.441C500.38 105.241 498.08 107.551 495.28 107.551C492.48 107.551 490.17 105.251 490.16 102.461C490.16 99.6606 492.46 97.3506 495.26 97.3506C498.06 97.3506 500.37 99.6506 500.38 102.441Z" fill="#EA00A4"/>
<path d="M385.39 206.301C385.37 209.001 383.01 211.341 380.31 211.341C377.57 211.341 375.17 208.901 375.24 206.181C375.31 203.471 377.7 201.161 380.38 201.201C383.09 201.251 385.42 203.611 385.39 206.301Z" fill="#EA00A4"/>
<path d="M429.96 154.711C432.64 154.681 435.04 157.061 435.04 159.751C435.04 162.441 432.65 164.821 429.97 164.801C427.31 164.781 425 162.491 424.95 159.821C424.89 157.161 427.26 154.741 429.96 154.711Z" fill="#EA00A4"/>
<path d="M364.75 222.28C362.06 222.3 359.78 220.07 359.74 217.36C359.69 214.64 362.02 212.3 364.76 212.32C367.47 212.35 369.71 214.61 369.71 217.3C369.71 220 367.46 222.25 364.75 222.28Z" fill="#EA00A4"/>
<path d="M414.24 165.891C417.05 165.911 419.09 168.031 419.05 170.891C419.02 173.691 416.89 175.711 414.01 175.661C411.26 175.621 409.24 173.521 409.26 170.721C409.28 167.901 411.38 165.861 414.24 165.881V165.891Z" fill="#EA00A4"/>
<path d="M463.61 129.381C460.82 129.381 458.7 127.251 458.72 124.451C458.73 121.721 460.85 119.631 463.59 119.621C466.38 119.621 468.5 121.751 468.48 124.551C468.47 127.281 466.35 129.371 463.61 129.381Z" fill="#EA00A4"/>
<path d="M396.98 206.421C396.48 208.241 396.92 210.451 396.51 212.611C396.39 213.221 396.12 213.511 395.6 213.721C393.46 214.571 390.82 213.761 389.41 211.821C387.92 209.751 388.06 206.991 389.75 205.081C391.32 203.311 394.07 202.811 396.11 203.811C397.18 204.341 396.92 205.231 396.97 206.411L396.98 206.421Z" fill="#EA00A4"/>
<path d="M353.74 228.081C353.74 230.741 351.52 232.951 348.86 232.941C346.2 232.931 344 230.691 344.03 228.031C344.06 225.421 346.24 223.251 348.85 223.231C351.51 223.211 353.74 225.421 353.74 228.081Z" fill="#EA00A4"/>
<path d="M382.73 188.061C385.31 188.061 387.57 190.371 387.51 192.911C387.45 195.461 385.23 197.631 382.71 197.621C380.13 197.621 377.87 195.311 377.93 192.771C377.99 190.221 380.21 188.051 382.73 188.061Z" fill="#EA00A4"/>
<path d="M490.49 123.721C493.76 123.721 496.27 126.441 496.05 129.761C495.85 132.851 492.95 135.211 489.81 134.871C488.86 134.771 488.42 134.381 488.44 133.341C488.5 130.781 488.46 128.231 488.46 125.671C488.46 123.951 488.7 123.721 490.48 123.721H490.49Z" fill="#EA00A4"/>
<path d="M497.43 94.1108C494.22 94.1108 491.88 90.9808 492.78 87.9108C493.18 86.5608 493.95 85.7108 495.43 85.5508C496.45 85.4408 497.48 85.2408 498.47 85.0208C499.51 84.7808 500.17 85.1708 500.82 85.7908C502.25 87.1508 502.68 89.2608 501.93 91.0808C501.18 92.9008 499.38 94.1108 497.43 94.1108Z" fill="#EA00A4"/>
<path d="M383.14 235.491C383.2 230.861 388 228.081 391.76 230.191C392.39 230.541 392.67 230.881 392.33 231.701C391.14 234.571 389.71 237.301 388.07 239.931C387.56 240.761 387.01 240.871 386.22 240.391C384.25 239.211 383.22 237.491 383.14 235.481V235.491Z" fill="#EA00A4"/>
<path d="M436.32 146.411C436.32 149.431 435.42 150.731 433.06 151.191C430.84 151.621 428.62 150.441 427.8 148.391C426.92 146.201 427.71 143.731 429.69 142.531C431.59 141.381 434.06 141.761 435.62 143.341C436.56 144.281 436.25 145.411 436.32 146.421V146.411Z" fill="#EA00A4"/>
<path d="M416.54 162.221C413.96 162.221 411.92 160.161 411.92 157.581C411.92 155.001 413.98 152.961 416.57 152.971C419.15 152.971 421.19 155.031 421.19 157.611C421.19 160.191 419.13 162.231 416.54 162.221Z" fill="#EA00A4"/>
<path d="M461.37 110.971C461.42 108.411 463.55 106.391 466.13 106.461C468.69 106.521 470.7 108.661 470.62 111.241C470.54 113.751 468.45 115.731 465.92 115.701C463.36 115.661 461.32 113.551 461.37 110.981V110.971Z" fill="#EA00A4"/>
<path d="M437.56 207.291C437.65 207.861 437.24 208.231 436.31 208.251C433.19 208.331 430.38 205.731 430.19 202.541C430 199.371 432.51 196.421 435.62 196.181C436.21 196.131 436.75 196.141 436.79 196.971C436.96 200.301 437.13 203.631 437.55 207.301L437.56 207.291Z" fill="#EA00A4"/>
<path d="M337.851 239.101C337.871 242.031 335.001 244.391 332.181 243.801C331.461 243.651 330.951 243.341 330.611 242.661C330.031 241.481 329.421 240.321 328.761 239.191C328.311 238.401 328.401 237.691 328.801 236.931C329.821 234.991 332.031 233.971 334.151 234.491C336.261 235.001 337.831 236.971 337.851 239.101Z" fill="#EA00A4"/>
<path d="M409.35 203.131C408.54 203.091 407.81 202.981 407.75 201.861C407.67 200.241 407.47 198.621 407.36 197.001C407.3 196.051 407.36 195.101 407.16 194.151C406.89 192.811 407.16 192.471 408.45 192.261C410.61 191.911 412.4 192.621 413.71 194.361C415.06 196.141 415.21 198.121 414.21 200.111C413.23 202.061 411.52 202.981 409.34 203.131H409.35Z" fill="#EA00A4"/>
<path d="M355.88 214.881C355.9 217.321 353.75 219.481 351.3 219.501C348.86 219.521 346.69 217.381 346.68 214.931C346.66 212.491 348.81 210.331 351.26 210.311C353.7 210.291 355.87 212.431 355.88 214.881Z" fill="#EA00A4"/>
<path d="M454.95 122.081C454.97 124.471 452.87 126.611 450.45 126.661C448.02 126.711 445.81 124.511 445.84 122.081C445.87 119.671 448 117.561 450.4 117.561C452.8 117.561 454.93 119.671 454.95 122.081Z" fill="#EA00A4"/>
<path d="M339.851 225.951C339.851 228.501 337.931 230.371 335.361 230.341C332.871 230.321 331.021 228.421 331.021 225.911C331.021 223.361 332.941 221.491 335.511 221.521C338.001 221.541 339.851 223.441 339.851 225.951Z" fill="#EA00A4"/>
<path d="M389.52 179.441C389.52 181.921 387.62 183.811 385.12 183.811C382.58 183.811 380.69 181.891 380.71 179.331C380.73 176.871 382.66 175.001 385.17 175.021C387.65 175.041 389.52 176.941 389.52 179.441Z" fill="#EA00A4"/>
<path d="M438.95 133.141C438.95 135.601 436.99 137.541 434.52 137.531C432.09 137.521 430.19 135.621 430.16 133.201C430.14 130.721 432.05 128.771 434.52 128.761C437 128.751 438.94 130.671 438.94 133.151L438.95 133.141Z" fill="#EA00A4"/>
<path d="M452.84 135.551C452.84 138.121 450.72 140.291 448.14 140.381C447.13 140.411 446.55 140.131 446.43 138.931C446.24 136.991 445.85 135.051 444.21 133.691C443.58 133.171 444.03 132.781 444.35 132.391C445.58 130.891 447.78 130.341 449.69 131.031C451.54 131.701 452.85 133.581 452.84 135.561V135.551Z" fill="#EA00A4"/>
<path d="M423.29 144.221C423.25 146.571 421.15 148.591 418.84 148.501C416.51 148.411 414.57 146.401 414.62 144.121C414.66 141.771 416.76 139.751 419.07 139.841C421.4 139.931 423.34 141.941 423.29 144.221Z" fill="#EA00A4"/>
<path d="M369.18 194.801C368.52 194.771 367.8 194.621 367.3 193.931C367.19 193.771 367.02 193.651 366.86 193.531C364.65 191.871 364.3 189.761 365.88 187.751C367.34 185.901 370.12 185.581 371.99 187.071C373.38 188.171 373.95 190.121 373.38 191.821C372.79 193.591 371.13 194.801 369.17 194.811L369.18 194.801Z" fill="#EA00A4"/>
<path d="M452.78 104.531C455.17 104.531 456.95 106.281 456.96 108.661C456.96 111.051 455.2 112.831 452.82 112.841C450.43 112.841 448.65 111.091 448.64 108.711C448.64 106.321 450.4 104.541 452.78 104.531Z" fill="#EA00A4"/>
<path d="M476.97 132.201C474.23 132.151 471.89 129.861 471.74 127.091C471.6 124.451 473.79 121.941 476.48 121.641C477.12 121.571 477.52 121.681 477.63 122.461C477.94 124.701 478.18 126.941 478.33 129.201C478.36 129.641 478.33 130.081 478.4 130.511C478.63 131.881 478.35 132.221 476.98 132.201H476.97Z" fill="#EA00A4"/>
<path d="M337.81 216.621C335.59 216.601 333.69 214.691 333.71 212.471C333.73 210.251 335.65 208.361 337.87 208.381C340.09 208.401 341.99 210.311 341.97 212.531C341.95 214.751 340.03 216.641 337.81 216.621Z" fill="#EA00A4"/>
<path d="M441.07 119.731C441.06 121.891 439.16 123.791 437 123.821C434.8 123.851 432.83 121.891 432.85 119.691C432.86 117.481 434.85 115.551 437.04 115.601C439.21 115.651 441.08 117.571 441.07 119.731Z" fill="#EA00A4"/>
<path d="M397.2 195.22C397.2 196.57 397.18 197.93 397.2 199.28C397.22 200.05 396.88 200.321 396.13 200.351C393.43 200.451 391.04 198.08 391.04 195.25C391.04 192.41 393.39 190.05 396.1 190.11C396.93 190.13 397.23 190.47 397.21 191.27C397.18 192.58 397.21 193.901 397.2 195.211V195.22Z" fill="#EA00A4"/>
<path d="M425.28 130.7C425.29 132.97 423.63 134.65 421.37 134.65C419.1 134.65 417.44 132.981 417.44 130.711C417.44 128.501 419.09 126.84 421.29 126.82C423.57 126.8 425.26 128.44 425.28 130.7Z" fill="#EA00A4"/>
<path d="M375.6 177.061C375.58 179.321 373.89 180.961 371.61 180.931C369.36 180.901 367.73 179.191 367.77 176.911C367.81 174.711 369.48 173.091 371.7 173.101C373.96 173.101 375.62 174.791 375.6 177.061Z" fill="#EA00A4"/>
<path d="M488.48 142.401C488.48 140.841 488.5 139.281 488.48 137.731C488.46 136.911 488.77 136.691 489.57 136.871C492 137.421 493.92 139.881 493.91 142.521C493.9 145.161 491.93 147.631 489.51 148.121C488.75 148.281 488.48 148.061 488.48 147.311C488.5 145.671 488.48 144.031 488.48 142.401Z" fill="#EA00A4"/>
<path d="M393.35 152.851C393.33 154.881 391.7 156.471 389.66 156.461C387.58 156.451 385.96 154.771 386.02 152.681C386.07 150.661 387.73 149.091 389.77 149.131C391.8 149.171 393.38 150.811 393.35 152.851Z" fill="#EA00A4"/>
<path d="M443.03 106.481C443.05 108.521 441.46 110.151 439.43 110.181C437.34 110.211 435.68 108.581 435.69 106.491C435.69 104.461 437.31 102.851 439.35 102.851C441.39 102.851 443.01 104.441 443.03 106.481Z" fill="#EA00A4"/>
<path d="M340.29 195.401C342.39 195.421 343.96 197.061 343.91 199.191C343.87 201.231 342.25 202.771 340.18 202.751C338.08 202.731 336.51 201.091 336.56 198.961C336.6 196.921 338.22 195.381 340.29 195.401Z" fill="#EA00A4"/>
<path d="M472.16 195.081C472.23 193.251 473.44 191.301 475.81 190.051C476.56 189.661 476.97 189.831 476.88 190.721C476.52 194.061 476.73 197.411 476.62 200.751C476.58 201.981 476.16 202.141 475.12 201.491C473.27 200.331 472.16 198.241 472.17 195.091L472.16 195.081Z" fill="#EA00A4"/>
<path d="M423.34 120.861C421.36 120.731 419.8 118.981 419.97 117.071C420.14 115.131 421.83 113.631 423.7 113.761C425.68 113.891 427.24 115.641 427.07 117.551C426.9 119.491 425.21 120.991 423.34 120.861Z" fill="#EA00A4"/>
<path d="M458.84 95.5504C458.82 97.1204 457.77 98.5804 456.29 99.1204C454.76 99.6704 453.12 99.2604 452.05 98.0404C450.98 96.8304 450.79 95.1104 451.53 93.6904C451.92 92.9404 452.49 92.6404 453.29 92.8204C454.72 93.1404 456.15 93.4704 457.57 93.8404C458.57 94.1004 458.86 94.5404 458.85 95.5504H458.84Z" fill="#EA00A4"/>
<path d="M324.45 206.451C325.9 206.471 327.25 207.401 327.79 208.761C328.35 210.211 328.05 211.511 327.02 212.631C326.02 213.711 324.45 213.971 323.06 213.501C321.73 213.051 321.63 211.941 321.47 210.841C321.4 210.371 321.44 209.891 321.44 209.411C321.44 207.501 322.54 206.421 324.45 206.451Z" fill="#EA00A4"/>
<path d="M357.44 256.461C356.13 256.331 354.5 256.641 352.87 256.281C352.12 256.111 352.07 255.831 352.3 255.221C353.03 253.221 355.17 251.761 357.44 251.751C359.8 251.731 361.93 253.141 362.72 255.191C363.08 256.111 362.73 256.461 361.83 256.461C360.47 256.461 359.11 256.461 357.44 256.461Z" fill="#EA00A4"/>
<path d="M343.74 249.62C346.67 249.59 349.03 251.65 349.38 254.3C349.54 255.55 349.31 255.77 348.06 255.54C345.4 255.05 342.84 254.23 340.38 253.1C339.47 252.68 339.39 252.21 340.04 251.49C341.11 250.3 342.45 249.7 343.75 249.62H343.74Z" fill="#EA00A4"/>
<path d="M342.63 182.411C344.46 182.411 345.89 183.841 345.87 185.671C345.86 187.501 344.41 188.911 342.58 188.881C340.8 188.861 339.41 187.461 339.4 185.681C339.38 183.851 340.8 182.411 342.63 182.411Z" fill="#EA00A4"/>
<path d="M395.27 139.391C395.27 141.201 393.89 142.561 392.08 142.561C390.22 142.561 388.84 141.161 388.88 139.281C388.91 137.481 390.31 136.151 392.13 136.171C393.93 136.191 395.28 137.571 395.27 139.391Z" fill="#EA00A4"/>
<path d="M412.67 210.821C412.58 212.831 411.77 214.481 410.03 215.621C409.36 216.061 409.1 215.971 409.02 215.101C408.76 212.341 408.4 209.591 408.11 206.831C408.06 206.381 407.87 205.771 408.32 205.491C408.75 205.231 409.24 205.571 409.66 205.811C411.6 206.901 412.56 208.601 412.67 210.821Z" fill="#EA00A4"/>
<path d="M329.97 196.621C330 198.341 328.53 199.841 326.8 199.841C325.12 199.841 323.67 198.411 323.63 196.731C323.6 195.011 325.07 193.511 326.8 193.511C328.48 193.511 329.93 194.941 329.97 196.621Z" fill="#EA00A4"/>
<path d="M425.921 100.991C427.571 100.991 429.061 102.481 429.061 104.131C429.061 105.781 427.561 107.271 425.911 107.261C424.261 107.261 422.771 105.771 422.771 104.121C422.771 102.471 424.271 100.981 425.921 100.991Z" fill="#EA00A4"/>
<path d="M376.48 147.261C378.13 147.261 379.62 148.751 379.62 150.401C379.62 152.051 378.12 153.541 376.47 153.531C374.82 153.531 373.33 152.041 373.33 150.391C373.33 148.741 374.83 147.251 376.48 147.261Z" fill="#EA00A4"/>
<path d="M524.24 135.901C524.24 133.751 525.82 131.281 527.95 130.461C528.64 130.191 529.06 130.241 528.88 131.141C528.27 134.251 527.64 137.351 527.08 140.471C526.92 141.371 526.59 141.241 526.12 140.771C524.88 139.531 524.22 138.031 524.24 135.901Z" fill="#EA00A4"/>
<path d="M519.04 162.161C519.6 160.041 520.6 158.241 522.65 157.211C522.96 157.061 523.32 156.741 523.62 157.001C523.78 157.141 523.72 157.601 523.67 157.901C523.05 161.091 522.4 164.271 521.76 167.451C521.72 167.641 521.72 167.871 521.48 167.931C521.09 168.031 520.9 167.731 520.7 167.501C519.41 165.951 518.93 164.151 519.04 162.161Z" fill="#EA00A4"/>
<path d="M521.6 149.541C521.79 147.051 522.92 144.991 525.39 143.811C525.63 143.691 525.98 143.541 526.17 143.631C526.5 143.791 526.35 144.211 526.3 144.491C525.68 147.671 525.04 150.851 524.39 154.031C524.2 154.941 523.74 154.511 523.41 154.151C522.27 152.901 521.68 151.411 521.61 149.541H521.6Z" fill="#EA00A4"/>
<path d="M526.83 123.041C526.89 120.241 528.46 117.941 530.59 117.151C531.21 116.921 531.56 116.861 531.39 117.751C530.79 120.871 530.26 123.991 529.66 127.111C529.47 128.081 528.94 127.471 528.66 127.191C527.39 125.961 526.78 124.441 526.83 123.031V123.041Z" fill="#EA00A4"/>
<path d="M436.56 190.391C436.56 191.601 436.56 192.551 436.56 193.511C436.56 194.221 436.24 194.361 435.67 194.021C433.9 192.961 432.93 191.381 432.82 189.331C432.71 187.131 433.6 185.391 435.42 184.151C435.95 183.791 436.35 183.821 436.31 184.591C436.21 186.621 436.77 188.621 436.55 190.401L436.56 190.391Z" fill="#EA00A4"/>
<path d="M529.36 109.661C529.35 107.471 530.85 105.121 532.78 104.271C533.37 104.011 533.87 103.921 533.72 104.801C533.21 107.731 532.62 110.651 532.12 113.581C531.96 114.531 531.64 114.281 531.17 113.841C530.12 112.881 529.37 111.161 529.36 109.651V109.661Z" fill="#EA00A4"/>
<path d="M450.72 148.991C450.61 150.921 449.77 152.381 448.15 153.371C447.54 153.741 447.16 153.651 447.2 152.841C447.3 150.331 446.8 147.841 446.95 145.331C447.02 144.141 447.25 143.981 448.27 144.631C449.87 145.651 450.66 147.141 450.73 148.991H450.72Z" fill="#EA00A4"/>
<path d="M371.51 203.481C371.5 205.931 370.11 207.791 368.27 208.291C367.53 208.491 367.2 208.341 367.36 207.501C367.79 205.201 367.88 202.871 367.99 200.541C368.04 199.491 368.28 199.331 369.19 199.861C370.73 200.761 371.46 202.141 371.51 203.481Z" fill="#EA00A4"/>
<path d="M397.2 184.351C397.2 184.471 397.22 184.591 397.2 184.711C397.12 185.241 397.48 185.971 396.92 186.251C396.34 186.531 395.81 185.971 395.34 185.621C392.72 183.621 392.89 179.521 395.66 177.771C395.96 177.581 396.26 177.311 396.64 177.471C397.08 177.651 396.96 178.081 396.95 178.411C396.88 180.401 397.04 182.381 397.2 184.361V184.351Z" fill="#EA00A4"/>
<path d="M488.48 155.92C488.48 154.48 488.49 153.05 488.48 151.61C488.48 150.83 488.71 150.68 489.38 151.13C492.46 153.2 492.47 158.58 489.39 160.68C488.76 161.11 488.47 161.06 488.47 160.23C488.48 158.79 488.47 157.36 488.47 155.92H488.48Z" fill="#EA00A4"/>
<path d="M353.52 204.141C353.52 205.721 353.09 205.981 351.68 205.181C350.15 204.321 349.42 202.991 349.5 201.221C349.58 199.581 350.42 198.451 351.82 197.701C352.64 197.261 353.02 197.411 353.06 198.451C353.14 200.351 353.36 202.251 353.52 204.151V204.141Z" fill="#EA00A4"/>
<path d="M347.75 172.481C347.75 174.031 346.57 175.181 345.02 175.171C343.47 175.171 342.32 174.001 342.33 172.441C342.33 170.891 343.51 169.741 345.06 169.751C346.61 169.751 347.76 170.931 347.75 172.481Z" fill="#EA00A4"/>
<path d="M397.18 126.021C397.14 127.511 395.84 128.711 394.34 128.631C392.89 128.561 391.74 127.301 391.78 125.861C391.82 124.371 393.12 123.171 394.62 123.241C396.07 123.311 397.22 124.571 397.18 126.021Z" fill="#EA00A4"/>
<path d="M329.21 186.031C327.76 186.031 326.63 184.901 326.65 183.451C326.67 182.051 327.78 180.961 329.17 180.961C330.62 180.961 331.75 182.091 331.73 183.541C331.71 184.941 330.6 186.031 329.21 186.031Z" fill="#EA00A4"/>
<path d="M535.2 93.701C535.28 95.861 534.66 97.951 534.48 100.081C534.43 100.671 534.15 100.661 533.79 100.331C531.14 97.841 531.52 93.641 534.41 91.561C534.97 91.161 535.2 91.421 535.2 92.021C535.2 92.581 535.2 93.141 535.2 93.701Z" fill="#EA00A4"/>
<path d="M381.35 136.931C381.37 138.371 380.32 139.441 378.89 139.441C377.45 139.441 376.39 138.391 376.4 136.951C376.4 135.561 377.42 134.531 378.8 134.501C380.24 134.471 381.33 135.501 381.35 136.931Z" fill="#EA00A4"/>
<path d="M441.76 96.4613C440.47 96.4613 439.07 95.5113 438.67 94.3813C438.48 93.8413 438.54 93.4013 439.16 93.2913C440.79 93.0013 442.41 92.6213 444.07 92.5313C444.92 92.4913 445.21 92.8513 445.04 93.6913C444.72 95.2613 443.33 96.4613 441.75 96.4613H441.76Z" fill="#EA00A4"/>
<path d="M411.33 128.15C411.32 129.97 410.07 131.44 408.48 131.71C407.72 131.84 407.18 131.71 407.36 130.77C407.68 129.02 407.99 127.28 408.36 125.54C408.5 124.88 409.04 125.09 409.41 125.29C410.63 125.94 411.28 126.96 411.33 128.15Z" fill="#EA00A4"/>
<path d="M477.47 178.171C477.35 180.941 477.24 183.721 477.12 186.491C477.12 186.711 477.18 187.011 476.88 187.091C476.61 187.161 476.46 186.911 476.3 186.751C474.02 184.511 474.29 179.821 476.8 177.811C476.98 177.661 477.16 177.421 477.41 177.541C477.67 177.661 477.58 177.951 477.47 178.171Z" fill="#EA00A4"/>
<path d="M326.36 223.701C326.31 224.651 325.94 225.651 325.13 226.431C324.54 227.001 324.24 226.841 324.03 226.031C323.54 224.141 323.18 222.231 322.78 220.331C322.57 219.351 323.09 219.521 323.62 219.671C325.14 220.091 326.36 221.831 326.36 223.691V223.701Z" fill="#EA00A4"/>
<path d="M468.62 102.261C466.06 102.301 463.9 100.141 464.02 97.8408C464.06 97.1108 464.22 96.7708 465.02 97.2908C466.49 98.2508 467.83 99.3708 469.13 100.551C469.49 100.881 470.12 101.221 469.86 101.801C469.63 102.301 468.97 102.201 468.63 102.271L468.62 102.261Z" fill="#EA00A4"/>
<path d="M406.64 141.751C406.64 140.871 406.64 140.001 406.64 139.121C406.64 138.321 407.07 138.241 407.64 138.621C408.81 139.371 409.38 140.521 409.35 141.861C409.32 143.191 408.71 144.321 407.51 145.031C406.91 145.391 406.62 145.201 406.63 144.501C406.63 143.581 406.63 142.671 406.63 141.751H406.64Z" fill="#EA00A4"/>
<path d="M347.2 157.041C348.38 157.041 349.22 157.911 349.19 159.091C349.16 160.211 348.32 161.021 347.19 161.021C346.02 161.021 345.17 160.151 345.2 158.971C345.23 157.851 346.07 157.041 347.2 157.041Z" fill="#EA00A4"/>
<path d="M387.56 170.361C386.36 170.301 385.31 169.881 384.49 168.991C384.31 168.791 384.05 168.581 384.2 168.271C384.32 168.021 384.61 168.081 384.84 168.081C386.6 168.081 388.35 168.081 390.11 168.081C390.37 168.081 390.72 168.011 390.81 168.371C390.88 168.661 390.66 168.901 390.47 169.091C389.68 169.901 388.69 170.281 387.57 170.361H387.56Z" fill="#EA00A4"/>
<path d="M333.42 170.091C333.4 171.101 332.59 171.891 331.57 171.881C330.55 171.861 329.76 171.051 329.78 170.031C329.8 169.021 330.61 168.231 331.63 168.241C332.65 168.261 333.44 169.071 333.42 170.091Z" fill="#EA00A4"/>
<path d="M361.69 174.461C361.65 176.081 361.15 177.001 360.21 177.661C359.73 177.991 359.37 177.941 359.37 177.261C359.37 175.781 359.37 174.311 359.39 172.831C359.39 172.501 359.51 172.121 359.79 172.001C360.17 171.831 360.45 172.191 360.69 172.441C361.36 173.131 361.72 173.951 361.7 174.461H361.69Z" fill="#EA00A4"/>
<path d="M382.78 123.761C382.8 124.741 382.05 125.521 381.07 125.531C380.09 125.551 379.31 124.801 379.3 123.821C379.28 122.841 380.03 122.061 381.01 122.051C381.99 122.031 382.77 122.781 382.78 123.761Z" fill="#EA00A4"/>
<path d="M385.79 243.051C384.55 245.001 382.84 246.421 381.26 247.961C380.83 248.371 380.76 247.921 380.76 247.581C380.79 245.481 383.52 242.971 385.79 243.051Z" fill="#EA00A4"/>
<path d="M365.52 136.341C364.53 136.261 363.95 135.801 363.94 134.841C363.94 133.891 364.46 133.341 365.41 133.331C366.36 133.321 366.91 133.851 366.93 134.801C366.95 135.771 366.37 136.221 365.52 136.341Z" fill="#EA00A4"/>
<path d="M476.82 117.531C474.83 116.521 473.8 113.541 474.71 111.871C474.8 111.711 474.86 111.481 475.12 111.521C475.36 111.561 475.39 111.781 475.45 111.961C476.09 113.711 476.41 115.531 476.81 117.531H476.82Z" fill="#EA00A4"/>
<path d="M413.28 115.081C413.19 116.361 412.69 117.251 411.64 117.781C411.34 117.931 410.98 118.191 410.65 117.871C410.36 117.591 410.6 117.271 410.7 116.991C411.06 116.031 411.42 115.071 411.83 114.131C411.96 113.831 412.02 113.351 412.45 113.371C412.84 113.391 412.97 113.821 413.08 114.161C413.19 114.491 413.24 114.851 413.29 115.081H413.28Z" fill="#EA00A4"/>
<path d="M447.271 165.401V159.091C448.921 160.321 448.991 163.461 447.271 165.401Z" fill="#EA00A4"/>
</g>
<defs>
<clipPath id="clip0_93_11917">
<rect width="651.69" height="345.32" fill="white"/>
</clipPath>
</defs>
</svg>
