<svg width="649" height="456" viewBox="0 0 649 456" fill="none" xmlns="http://www.w3.org/2000/svg">
<g clip-path="url(#clip0_93_12406)">
<path d="M579.97 277.97L579.99 277.85C586.35 240.57 595.96 184.24 598.38 161.76C600.8 139.28 588.65 127.22 576.48 123.42C573.67 122.54 568.96 121.5 557.38 121.16C550.38 120.96 544.29 121.04 538.97 121.35C538.92 120.84 538.88 120.33 538.83 119.83L538.79 119.44C538.7 118.52 538.62 117.61 538.54 116.67L538.5 116.27C537.47 106.46 534.74 80.3801 504.38 72.67C504.12 72.6 503.86 72.5401 503.56 72.4801C498.17 71.3001 492.83 71.1001 487.72 71.8001C484.92 67.2601 480.9 63.4401 475.92 60.7901C464.38 54.7301 449.51 55.5501 438.91 62.8101C437.11 64.0501 435.48 65.4401 434.03 66.9601C425.04 63.2701 415.89 61.7601 407.65 60.6601C395.03 58.9801 384.95 61.1001 377.68 66.9801C376.91 66.6201 376.14 66.28 375.35 65.95C364.54 61.51 352.67 57.7801 340.08 54.8701C306.97 47.2301 272.83 54.6601 245.82 74.7601L236.49 72.2801C217.41 67.2001 197.27 69.0701 179.62 76.9401C177.53 77.6901 175.59 78.6801 173.78 79.8201C167.09 83.4401 160.84 87.96 155.25 93.34L154.11 94.4401C144.37 90.9801 133.26 92.8101 125.43 100.15C119.74 105.47 116.65 112.77 116.71 120.69C116.73 123.6 117.2 126.45 118.06 129.19L110 136.96C96.65 149.81 90.84 168.32 94.44 186.49L99.07 213.22C97.05 213.29 94.94 213.47 92.72 213.78C66.64 217.42 48.32 245.56 50.1 279.23C51.03 296.78 57.08 311.59 67.61 322.06C67.68 322.13 67.75 322.19 67.82 322.26C67.84 323.69 67.93 325.14 68.12 326.58C69.15 334.6 72.73 341.97 78.2 347.33C83.53 352.55 90.36 355.54 97.44 355.74C98.84 355.78 100.26 355.71 101.63 355.53C113.87 353.95 123.29 344.18 126.14 331.68C127.75 330.8 129.3 329.81 130.79 328.73C141.9 347.18 156.32 357.92 167.11 365.96C169.95 368.08 172.64 370.08 174.96 371.98L176.11 372.93C189.49 383.95 211.89 402.4 246.68 403.42L247.34 403.44C273.22 404.03 296.4 392.26 314.71 370.07C320.67 376.69 327.52 381.33 335.23 383.93C341.84 386.16 350.15 387.57 358.03 387.8C373.32 388.25 387.32 384.38 398.54 376.61C404.36 372.58 409.56 367.55 414.04 361.67C416.69 366.11 419.68 369.74 423.05 372.67C433.01 381.32 445.44 386.1 458.99 386.49C473.45 386.91 488.52 381.99 500.8 373.22C508.66 381.81 520.28 387.26 533.64 388.18C544.85 388.98 556.3 384.65 565.06 376.3C573.29 368.45 578.12 357.85 578.32 347.23C578.51 336.82 576.17 327.71 571.48 320.36C574.09 315.07 574.7 309.95 575.04 307.15C575.27 305.24 577.74 290.76 579.92 277.98L579.97 277.97Z" fill="white"/>
<path d="M563.78 305.78C564.04 303.64 566.22 290.86 568.74 276.06L568.76 275.94C575.1 238.8 584.67 182.67 587.06 160.54C589.12 141.42 577.97 135.81 573.09 134.29C571.97 133.94 568.55 132.88 557.05 132.54C544.19 132.17 534.97 132.81 528.3 133.91C528.3 129.39 527.88 124.96 527.5 120.88C527.4 119.8 527.3 118.73 527.21 117.68C527.21 117.61 527.2 117.53 527.19 117.46C525.66 102.92 521.5 88.7596 501.53 83.6896C501.4 83.6596 501.27 83.6296 501.15 83.5996C493.92 82.0196 486.82 82.7896 480.73 85.6196C480.06 79.4096 476.38 73.9196 470.65 70.8696C462.87 66.7796 452.47 67.3296 445.36 72.1996C441.79 74.6496 439.3 78.0396 438.12 81.8596C428.04 75.3096 416.35 73.3096 406.16 71.9496C396.74 70.6996 389.57 72.0096 384.82 75.8496C381.47 78.5696 379.44 82.4296 379.12 86.7196C377.78 104.4 380.51 133.75 382.97 151.99C377.87 150.56 372.83 150.02 368.65 149.9C361.36 149.69 353.51 150.65 346.55 152.62C324.87 158.27 310.88 166.61 303.49 192.38C303.49 192.4 303.46 192.48 303.46 192.5C303.33 192.98 303.21 193.54 303.14 194.03C298.43 225.99 301.01 281.27 302.34 303.55C303.07 315.83 305.51 327.59 309.6 338.51C316.62 357.29 326.48 368.93 338.92 373.12C344.42 374.97 351.71 376.2 358.42 376.39C371.26 376.76 382.92 373.59 392.12 367.22C403.79 359.14 411.32 347.05 415.68 334.74C420.47 352.9 426.05 360.12 430.58 364.05C438.54 370.95 448.5 374.77 459.39 375.09C475.36 375.56 492.27 368.06 503.4 355.84C507.66 367.61 519.23 375.76 534.53 376.81C542.53 377.38 550.88 374.15 557.28 368.05C563.33 362.28 566.88 354.61 567.02 347.01C567.23 335.63 563.72 326.68 557.15 320.84C558.73 319.46 560.07 317.75 561.12 315.76C563.05 312.08 563.51 308.29 563.81 305.78H563.78Z" fill="#160830"/>
<path d="M390.769 87.6096C391.149 82.5396 399.869 82.9096 404.609 83.5396C413.399 84.7096 423.739 86.3496 432.039 91.8496C439.639 96.8896 443.109 106.07 444.329 114.12C446.839 130.7 445.129 148.38 436.949 156.07C431.169 161.51 423.639 165.28 415.989 166.97C410.209 167.68 398.169 169.82 396.719 163.69C394.689 155.12 389.059 110.25 390.779 87.5996L390.769 87.6096ZM423.259 118.71C422.409 114.25 419.289 102.94 410.949 102.96C408.239 102.96 408.849 104.46 409.219 106.75C410.729 116 412.489 137.86 413.259 143.21C413.479 144.74 413.519 148.1 416.409 146.81C419.799 145.3 425.539 139.78 424.699 129.84C424.469 127.11 423.929 122.18 423.259 118.72V118.71Z" fill="white"/>
<path d="M452.109 148.73C451.509 147.41 451.64 145.23 451.42 143.71C450.63 134.59 448.659 109.6 449.329 102.67C449.659 99.21 454.979 99.43 459.149 99.49C469.169 99.63 470.449 100.83 470.629 105.1C471.639 118.58 470.849 130 471.829 143.51C471.909 145.31 471.77 147.44 470.51 148.82C469.06 150.47 466.34 150.76 463.98 150.79C452.55 150.94 452.109 148.74 452.109 148.74V148.73ZM449.069 87.75C448.269 80.79 458.799 77.86 465.209 81.23C470.359 83.97 470.579 91.38 465.099 93.87C459.069 96.77 449.399 94.47 449.089 87.92V87.75H449.069Z" fill="white"/>
<path d="M477.2 134.63C476.59 126.89 476.11 119.08 476.49 111.26C476.7 107.12 477.64 103.28 479.84 100.62C484.76 94.9504 492.15 93.6004 498.66 95.0204C509.96 97.8904 513.99 103.65 515.57 118.68C516.48 129.33 518.48 142.42 512.38 150.6C508.32 156.61 501.67 157.47 495.73 156.8C485.57 155.96 478.27 148.65 477.23 134.83L477.21 134.63H477.2ZM500.16 135.25C499.85 128.84 499.67 122.48 499.03 116.09C498.28 108.44 493.73 108.31 492.89 115.12C492.53 118.82 493.34 123.36 493.37 127.42C493.58 131.18 493.51 135.72 494.66 138.86C496.6 144.16 500.35 141.43 500.15 135.44V135.24L500.16 135.25Z" fill="white"/>
<path d="M315.749 195.9C321.389 176.2 330.559 169.96 349.899 164.93C363.019 161.2 380.549 161.53 389.739 169.48C409.059 186.19 406.139 210.48 405.939 233.82C405.689 237.98 406.339 240.24 401.369 240.86C392.499 242.25 383.559 242.96 374.589 243.42C371.259 243.5 366.16 244.16 365.669 239.85C364.799 234.39 366.769 228.09 363.769 223.11C361.309 218.96 354.699 218.91 351.959 222.81C347.479 229.19 349.43 247.31 350.889 268.25C351 269.79 353.619 293.18 354.749 303.22C355.059 306.02 357.279 308.22 360.079 308.5C364.559 308.96 370.689 308.84 371.709 305.02C372.729 301.2 372.669 291.68 372.229 287.59C372.049 285.93 370.609 284.69 368.939 284.78C365.769 284.95 363.029 286.58 362.499 283.19C361.009 273.75 360.829 271.12 360.929 261.61C360.989 255.8 362.069 255.71 365.669 255.47C373.369 254.96 401.589 251.66 404.699 254.98C407.809 258.3 408.499 296.9 407.629 311C406.579 327.98 399.319 346.71 384.809 356.75C369.309 367.48 348.949 363.07 342.949 361.05C332.559 357.55 325.729 345.36 321.509 334.06C317.769 324.04 315.679 313.48 315.039 302.81C313.739 280.96 311.189 226.72 315.729 195.91L315.749 195.9ZM569.299 146.47C563.609 144.7 526.159 143.96 519.819 150.1C518.789 151.1 518.299 152.8 518.199 154.39C517.369 168.11 519.939 236.67 521.4 305.5C521.5 310.26 524.029 311.25 528.659 311.55C534.999 311.96 539.669 312.15 545.379 312.25C550.099 312.33 550.639 308.27 551.119 304.25C552.069 296.34 570.989 190.68 574.379 159.17C574.929 154.08 574.789 148.18 569.299 146.47ZM438.919 354.43C455.729 369.02 482.249 362.06 495.709 345.19C508.379 329.48 505.969 307.88 506.159 288.93C505.319 260.39 512.209 194.27 497.259 171.85C485.539 154.27 453.069 150.85 430.639 174.82C421.849 184.21 420.229 195.6 418.369 207.72C417.569 212.94 416.799 335.24 438.909 354.43H438.919ZM454.399 219.23C454.809 209.27 458.909 208.15 461.509 207.94C464.229 207.73 467.029 208.72 467.859 220.58C469.419 242.96 470.109 275.01 469.879 298.98C469.799 307.16 467.819 312.04 464.269 312.6C460.199 313.24 459.289 307.27 458.409 301.39C455.619 282.85 454.019 228.63 454.409 219.22L454.399 219.23ZM533.659 325.88C519.119 325.95 514.589 335.51 514.369 345.02C514.109 356.17 522.719 363.22 535.449 364.09C544.439 364.71 554.069 355.95 554.239 346.78C554.489 333.1 547.949 325.81 533.659 325.88Z" fill="#F75BC8"/>
<path d="M504.229 309.239C501.119 307.809 499.249 305.819 498.569 302.789C497.579 298.369 500.859 293.579 505.349 292.919C506.259 292.789 506.609 293.109 506.649 293.999C506.879 299.469 506.759 304.929 506.629 310.389C506.529 314.819 506.169 319.209 505.469 323.579C503.889 333.349 500.109 342.079 492.969 349.109C487.749 354.249 481.689 358.129 474.649 360.349C474.259 360.469 473.739 360.899 473.449 360.409C473.199 359.989 473.699 359.619 473.989 359.289C475.349 357.699 477.159 356.869 479.219 356.389C475.799 353.839 475.129 352.859 474.219 349.069C472.589 352.279 470.149 354.159 466.319 354.419C469.029 355.449 470.789 357.059 471.799 359.469C472.259 360.559 472.279 361.179 470.809 361.499C462.409 363.299 454.189 363.139 446.259 359.459C444.469 358.629 442.829 357.549 441.189 356.459C440.039 355.689 440.499 355.109 441.149 354.479C443.399 352.309 446.049 351.339 449.149 352.149C452.199 352.949 454.209 354.939 455.149 357.949C455.349 358.589 455.439 359.249 455.599 359.959C457.709 356.029 458.249 355.599 463.179 353.929C458.929 351.569 456.959 348.159 458.319 343.389C459.269 340.049 462.159 337.949 466.209 337.539C464.059 336.519 462.369 335.239 461.389 333.249C460.379 331.209 460.259 329.069 460.979 326.919C462.069 323.649 465.459 321.279 468.809 321.379C472.969 321.509 475.759 323.959 477.069 328.819C478.719 325.509 481.149 323.519 485.099 323.319C482.779 322.389 481.139 321.049 480.169 318.999C479.209 316.989 479.039 314.939 479.739 312.819C480.859 309.419 484.319 306.919 487.739 307.069C492.179 307.269 494.989 309.999 496.059 315.359C497.519 311.689 500.099 309.699 504.219 309.239H504.229ZM474.749 345.709C476.149 342.199 478.609 340.459 482.119 339.719C478.799 338.149 477.069 335.719 476.659 332.139C475.199 335.509 472.849 337.389 469.059 337.909C472.439 339.589 474.369 341.909 474.749 345.719V345.709ZM495.609 318.049C494.279 321.349 491.759 323.089 488.119 323.759C491.379 325.299 493.139 327.619 493.629 331.089C494.989 328.049 497.209 326.269 500.509 325.519C497.479 323.719 496.019 321.279 495.609 318.049ZM485.999 340.249C487.429 340.939 488.529 341.659 489.449 342.639C490.399 343.649 490.829 344.969 491.609 346.279C492.979 344.319 494.629 342.969 496.789 342.299C497.479 342.089 497.429 341.799 496.909 341.429C494.699 339.889 493.499 337.729 493.089 334.859C491.649 337.979 489.349 339.639 485.999 340.249Z" fill="#EA00A4"/>
<path d="M531.06 308.049C530.19 308.929 529.53 309.729 528.73 310.379C526.27 312.389 522.59 311.149 521.75 308.059C521.14 305.789 521.13 303.449 521.29 301.159C521.39 299.679 521.39 298.209 521.34 296.739C521.31 295.869 521.4 295.169 522.78 294.889C521.36 294.469 521.24 293.649 521.22 292.699C521.13 288.949 521.04 285.199 520.86 281.449C520.8 280.259 521.26 279.659 522.3 279.199C527.51 276.909 533.32 280.429 534.05 286.509C534.83 284.929 535.67 283.569 536.98 282.569C538.31 281.549 539.83 281.049 541.46 280.699C536.94 277.509 535.46 274.319 536.64 270.309C537.76 266.519 540.69 264.529 545.57 264.249C541.03 262.549 538.54 259.319 538.91 255.609C539.33 251.359 542.14 248.409 546.34 247.779C550.35 247.179 553.32 249.549 555.72 255.359C556.54 253.689 557.55 252.239 559.16 251.349C559.5 251.159 559.89 250.819 560.25 251.049C560.67 251.319 560.54 251.839 560.46 252.279C559.82 256.099 559.16 259.919 558.53 263.749C558.47 264.109 558.41 264.489 558.05 264.589C557.66 264.699 557.44 264.319 557.23 264.059C556 262.539 555.19 260.839 555.2 258.429C553.65 262.359 550.91 264.069 546.9 264.459C550.64 265.809 552.7 268.259 553.26 272.159C554.13 270.369 555.11 268.979 556.6 268.019C556.89 267.839 557.21 267.569 557.54 267.789C557.81 267.959 557.76 268.319 557.71 268.609C557.05 272.429 556.4 276.249 555.72 280.069C555.66 280.389 555.46 280.679 555.27 281.079C553.64 279.729 553.19 277.919 552.7 275.969C551.84 277.349 551.06 278.679 549.74 279.579C548.47 280.449 547.09 281.019 545.12 281.199C548.31 282.559 550.03 284.719 550.88 287.839C551.92 286.479 552.74 285.299 553.97 284.529C554.21 284.379 554.47 284.129 554.76 284.339C554.87 284.419 554.9 284.689 554.87 284.859C554.15 289.109 553.43 293.359 552.65 297.879C551.1 296.699 550.7 295.129 550.06 293.369C548.58 295.849 546.59 297.279 543.78 298.019C546.11 299.509 547.67 301.239 548.44 303.789C549.38 302.679 550.09 301.599 551.18 300.909C551.43 300.749 551.7 300.509 551.99 300.679C552.27 300.849 552.21 301.189 552.16 301.489C551.77 303.809 551.37 306.129 550.98 308.449C550.8 309.509 550.28 310.419 549.61 311.189C549.21 311.649 548.48 312.669 547.88 311.219C547.73 310.839 547.38 310.809 547.2 311.109C545.8 313.439 543.48 312.639 541.56 312.549C539.5 312.459 537.43 312.389 535.38 312.359C533.5 312.339 532.55 311.569 531.86 310.079C531.57 309.459 531.34 308.819 531.02 308.069L531.06 308.049ZM533.56 289.859C532.08 293.189 529.68 294.849 526.27 295.429C529.22 296.669 531.01 298.719 532 301.829C533.52 299.349 535.54 297.959 538.43 297.219C535.54 295.499 534.08 293.159 533.56 289.869V289.859Z" fill="#EA00A4"/>
<path d="M527.289 333.799C528.499 332.269 529.829 331.129 531.489 330.409C532.229 330.089 531.819 329.759 531.469 329.459C530.759 328.839 530.149 328.129 529.629 327.339C529.099 326.529 529.329 325.959 530.239 325.879C534.939 325.469 539.589 325.639 544.099 327.229C544.869 327.499 544.769 327.919 544.329 328.449C543.339 329.649 541.989 330.369 540.569 331.209C541.819 332.219 542.849 333.259 543.549 334.579C543.819 335.079 544.149 335.209 544.579 334.739C545.529 333.719 546.729 333.039 548.009 332.349C546.859 331.029 545.639 329.849 545.239 327.969C546.599 328.159 547.519 328.969 548.429 329.689C551.869 332.379 553.579 336.079 554.319 340.269C554.859 343.329 555.159 346.429 554.489 349.509C553.359 354.689 550.279 358.519 545.959 361.449C544.729 362.289 543.409 362.919 542.019 363.439C541.309 363.709 540.619 364.039 540.149 363.069C539.989 362.729 539.699 362.689 539.439 362.959C537.379 365.089 534.919 364.309 532.489 363.999C530.719 363.769 529.039 363.199 527.329 362.759C525.809 362.369 524.609 361.639 524.009 360.119C523.789 359.549 523.539 359.089 522.889 359.779C522.289 360.419 521.749 360.049 521.219 359.609C517.419 356.479 514.959 352.669 514.569 347.589C514.099 341.579 515.149 336.059 519.049 331.309C519.819 330.379 520.879 329.679 521.839 328.919C522.449 328.439 523.029 328.749 523.599 329.119C525.319 330.219 526.339 331.889 527.279 333.789L527.289 333.799ZM529.249 346.579C527.979 345.379 526.999 344.109 526.389 342.579C526.089 341.829 525.789 342.169 525.469 342.549C524.559 343.609 523.449 344.419 522.169 344.989C521.639 345.219 521.259 345.459 521.929 345.989C522.989 346.819 523.809 347.859 524.439 349.049C524.679 349.509 524.979 349.809 525.439 349.289C526.469 348.139 527.799 347.389 529.239 346.579H529.249ZM544.739 348.719C544.689 348.629 544.659 348.539 544.599 348.459C543.879 347.539 543.309 346.339 542.369 345.799C541.779 345.469 541.049 346.779 540.239 347.159C539.969 347.279 539.729 347.459 539.469 347.599C538.969 347.849 539.039 348.119 539.339 348.529C541.379 351.369 541.449 351.389 544.219 349.349C544.439 349.179 544.789 349.109 544.739 348.719Z" fill="#EA00A4"/>
<path d="M457.719 343.319C457.849 347.919 454.399 351.509 449.749 351.619C445.239 351.729 441.639 348.289 441.509 343.729C441.379 339.129 444.829 335.539 449.479 335.429C453.989 335.319 457.589 338.759 457.719 343.319Z" fill="#EA00A4"/>
<path d="M520.56 270.609C520.41 265.869 522.48 262.959 526.37 262.249C530.49 261.499 534.4 263.649 535.78 267.419C537.2 271.279 535.56 275.569 531.9 277.559C528.44 279.449 524.05 278.419 521.51 275.259C520.31 273.769 520.73 272.069 520.55 270.619L520.56 270.609Z" fill="#EA00A4"/>
<path d="M489.84 290.629C494.31 290.499 498.03 293.999 498.16 298.469C498.29 302.939 494.79 306.649 490.31 306.779C485.84 306.909 482.12 303.409 481.99 298.939C481.86 294.469 485.36 290.759 489.84 290.629Z" fill="#EA00A4"/>
<path d="M557.74 241.189C556.74 244.199 555.03 246.529 551.8 247.419C547.56 248.589 543.16 246.129 541.94 241.879C540.72 237.649 543.15 233.209 547.37 231.959C551.6 230.699 556.06 233.079 557.38 237.259C557.79 238.559 557.8 239.869 557.74 241.209V241.189Z" fill="#EA00A4"/>
<path d="M538.57 253.579C538.76 257.859 535.17 261.729 530.84 261.919C526.55 262.109 522.68 258.529 522.49 254.199C522.3 249.919 525.89 246.049 530.22 245.859C534.51 245.669 538.38 249.249 538.57 253.579Z" fill="#EA00A4"/>
<path d="M452.26 335.139C447.9 335.209 444.07 331.529 444.08 327.259C444.08 322.919 447.65 319.229 451.89 319.159C456.25 319.089 460.08 322.769 460.07 327.039C460.07 331.379 456.5 335.069 452.26 335.139Z" fill="#EA00A4"/>
<path d="M500.34 281.759C500.48 286.219 497.2 289.709 492.73 289.829C488.34 289.959 484.87 286.689 484.73 282.299C484.59 277.839 487.87 274.349 492.34 274.229C496.73 274.099 500.2 277.369 500.34 281.759Z" fill="#EA00A4"/>
<path d="M552.02 230.799C547.66 230.919 544.16 227.589 544.04 223.219C543.91 218.799 547.27 215.299 551.74 215.199C556.08 215.109 559.55 218.459 559.65 222.859C559.75 227.199 556.41 230.679 552.02 230.799Z" fill="#EA00A4"/>
<path d="M533.29 244.979C529.02 245.139 525.33 241.699 525.21 237.439C525.09 233.239 528.48 229.599 532.69 229.439C536.96 229.279 540.65 232.719 540.77 236.979C540.89 241.189 537.5 244.819 533.29 244.979Z" fill="#EA00A4"/>
<path d="M435.66 332.39C431.59 332.55 427.89 329.13 427.69 325.01C427.49 320.92 431.06 317.1 435.18 317.01C439.28 316.92 442.95 320.38 443.08 324.46C443.21 328.54 439.76 332.22 435.66 332.39Z" fill="#EA00A4"/>
<path d="M502.64 265.409C502.77 269.549 499.39 273.159 495.23 273.289C491.08 273.419 487.48 270.039 487.34 265.889C487.21 261.749 490.59 258.139 494.75 258.009C498.9 257.879 502.5 261.259 502.64 265.409Z" fill="#EA00A4"/>
<path d="M561.86 206.029C562.02 210.289 558.81 213.739 554.54 213.879C550.28 214.019 546.84 210.789 546.72 206.529C546.6 202.329 549.76 198.929 553.96 198.759C558.23 198.579 561.69 201.769 561.85 206.029H561.86Z" fill="#EA00A4"/>
<path d="M479.279 312.689C479.399 316.899 476.039 320.619 471.799 320.959C467.709 321.289 463.779 318.099 463.239 313.989C463.149 313.299 463.039 312.569 464.079 312.459C466.469 312.199 467.589 310.519 468.419 308.539C468.589 308.129 468.699 307.709 468.829 307.279C469.589 304.739 469.929 304.539 472.629 305.049C476.369 305.759 479.159 308.969 479.269 312.689H479.279Z" fill="#EA00A4"/>
<path d="M454.34 302.719C455.19 302.699 456 302.889 456.82 303.119C458.53 303.589 459.67 304.509 459.87 306.429C460.03 308.009 460.57 309.529 461.52 310.809C462.25 311.789 462.01 312.629 461.61 313.559C460.11 317.039 456.2 318.929 452.56 317.939C448.93 316.949 446.38 313.329 446.81 309.799C447.3 305.829 450.51 302.819 454.35 302.729L454.34 302.719Z" fill="#EA00A4"/>
<path d="M542.95 220.439C543.04 224.589 539.76 227.949 535.54 228.039C531.38 228.129 528.02 224.859 527.93 220.639C527.84 216.479 531.12 213.129 535.34 213.039C539.5 212.949 542.86 216.219 542.95 220.439Z" fill="#EA00A4"/>
<path d="M437.62 300.589C441.6 300.479 445.23 303.929 445.28 307.879C445.33 311.819 441.98 315.339 438.06 315.459C434.08 315.569 430.45 312.119 430.4 308.169C430.35 304.229 433.7 300.709 437.62 300.589Z" fill="#EA00A4"/>
<path d="M497.15 241.579C501.06 241.389 504.62 244.659 504.85 248.649C505.08 252.589 501.66 256.269 497.67 256.379C493.73 256.499 490.19 253.189 490.04 249.239C489.89 245.319 493.18 241.769 497.15 241.579Z" fill="#EA00A4"/>
<path d="M564.17 189.689C564.31 193.619 561.02 197.159 557.05 197.339C553.09 197.519 549.42 194.089 549.35 190.119C549.28 186.159 552.61 182.649 556.55 182.539C560.5 182.429 564.03 185.739 564.17 189.689Z" fill="#EA00A4"/>
<path d="M475.509 272.08C478.959 271.98 481.939 274.02 482.999 277.15C484.099 280.41 482.899 283.9 480.009 285.86C477.329 287.68 473.709 287.53 471.169 285.5C470.349 284.85 469.949 284.1 469.869 283C469.709 280.49 470.039 277.99 469.979 275.49C469.959 274.82 470.349 274.39 470.789 273.99C472.159 272.75 473.739 272.05 475.509 272.08Z" fill="#EA00A4"/>
<path d="M478.08 255.98C482.2 255.85 485.39 258.84 485.53 262.94C485.67 267.13 482.66 270.31 478.45 270.42C474.35 270.53 471.19 267.51 471.08 263.38C470.96 259.28 473.97 256.1 478.09 255.98H478.08Z" fill="#EA00A4"/>
<path d="M538.169 211.069C534.069 211.209 530.829 208.199 530.689 204.129C530.549 200.029 533.559 196.789 537.639 196.659C541.739 196.519 544.979 199.529 545.119 203.599C545.259 207.699 542.249 210.939 538.169 211.069Z" fill="#EA00A4"/>
<path d="M566.36 173.069C566.46 176.869 563.26 180.269 559.45 180.399C555.6 180.529 552.11 177.209 552.07 173.389C552.03 169.559 555.27 166.199 559.05 166.129C562.87 166.059 566.25 169.279 566.35 173.069H566.36Z" fill="#EA00A4"/>
<path d="M381.24 357.829C377.4 357.969 373.92 354.699 373.83 350.859C373.75 347.049 376.93 343.679 380.74 343.539C384.58 343.399 388.06 346.669 388.15 350.509C388.23 354.319 385.05 357.689 381.24 357.829Z" fill="#EA00A4"/>
<path d="M506.75 232.049C506.9 235.829 503.73 239.259 499.91 239.439C496.08 239.619 492.56 236.329 492.47 232.489C492.38 228.679 495.59 225.289 499.39 225.169C503.19 225.049 506.6 228.239 506.75 232.039V232.049Z" fill="#EA00A4"/>
<path d="M447.46 291.389C447.61 295.229 444.33 298.709 440.48 298.789C436.67 298.879 433.29 295.699 433.14 291.889C432.99 288.049 436.27 284.569 440.12 284.489C443.93 284.399 447.31 287.579 447.46 291.389Z" fill="#EA00A4"/>
<path d="M487.729 246.279C487.869 250.249 484.899 253.399 480.919 253.499C476.999 253.599 473.909 250.689 473.769 246.769C473.629 242.799 476.599 239.649 480.579 239.549C484.499 239.449 487.589 242.359 487.729 246.279Z" fill="#EA00A4"/>
<path d="M540.29 194.46C536.31 194.59 533.17 191.61 533.09 187.64C533 183.73 535.93 180.64 539.85 180.52C543.83 180.39 546.97 183.37 547.05 187.34C547.14 191.25 544.21 194.34 540.29 194.46Z" fill="#EA00A4"/>
<path d="M390.03 333.81C390.14 337.54 387.04 340.8 383.31 340.89C379.57 340.98 376.33 337.87 376.26 334.14C376.19 330.47 379.23 327.27 382.91 327.14C386.64 327.01 389.92 330.08 390.03 333.82V333.81Z" fill="#EA00A4"/>
<path d="M442.99 281.829C439.27 281.959 435.96 278.839 435.89 275.129C435.82 271.449 438.85 268.239 442.53 268.109C446.25 267.979 449.56 271.099 449.63 274.809C449.7 278.489 446.67 281.699 442.99 281.829Z" fill="#EA00A4"/>
<path d="M568.52 156.319C568.68 159.939 565.64 163.239 561.98 163.429C558.31 163.619 554.92 160.469 554.82 156.779C554.72 153.129 557.79 149.869 561.44 149.739C565.08 149.609 568.36 152.659 568.52 156.309V156.319Z" fill="#EA00A4"/>
<path d="M473.749 288.459C476.419 288.529 478.939 289.939 480.389 292.929C481.829 295.879 481.419 298.739 479.319 301.229C477.229 303.719 474.509 304.569 471.319 303.769C470.239 303.499 469.699 303.109 469.779 301.649C469.969 298.419 470.099 295.159 469.889 291.909C469.709 289.119 470.289 288.579 473.739 288.459H473.749Z" fill="#EA00A4"/>
<path d="M371.1 347.969C371.26 351.609 368.19 354.899 364.52 355.019C360.86 355.139 357.59 352.059 357.5 348.409C357.42 344.789 360.37 341.629 364.01 341.439C367.63 341.249 370.94 344.299 371.1 347.979V347.969Z" fill="#EA00A4"/>
<path d="M489.949 229.58C490.109 233.19 487.169 236.39 483.509 236.58C479.859 236.77 476.559 233.72 476.459 230.04C476.359 226.41 479.339 223.24 482.969 223.11C486.589 222.98 489.779 225.94 489.939 229.58H489.949Z" fill="#EA00A4"/>
<path d="M542.33 164.19C546.12 164.08 549.04 166.83 549.15 170.63C549.26 174.42 546.5 177.34 542.7 177.45C538.91 177.56 535.99 174.81 535.88 171.01C535.77 167.22 538.53 164.3 542.33 164.19Z" fill="#EA00A4"/>
<path d="M507.22 215.879C507.24 216.419 507.25 216.959 507.27 217.509C507.37 220.879 505.74 222.629 502.34 222.779C499.59 222.899 496.87 221.149 495.78 218.549C494.69 215.939 495.35 212.849 497.42 210.959C499.6 208.969 502.68 208.579 505.25 209.919C506.49 210.569 507.28 211.399 507.14 212.929C507.05 213.899 507.18 214.899 507.21 215.879H507.22Z" fill="#EA00A4"/>
<path d="M385.4 310.77C388.96 310.66 392.12 313.66 392.18 317.2C392.23 320.72 389.32 323.78 385.81 323.89C382.25 324 379.09 321 379.03 317.46C378.98 313.94 381.89 310.88 385.4 310.77Z" fill="#EA00A4"/>
<path d="M445.46 264.85C441.91 264.99 438.73 262.02 438.64 258.46C438.55 254.95 441.45 251.86 444.96 251.72C448.51 251.58 451.69 254.55 451.78 258.11C451.87 261.62 448.97 264.71 445.46 264.85Z" fill="#EA00A4"/>
<path d="M395.38 319.28C395.42 317.09 396.66 314.95 399.14 313.66C401.62 312.37 404.08 312.63 406.41 314.22C407.42 314.91 407.85 315.79 407.65 316.98C407.22 319.54 406.77 322.09 406.13 324.61C405.88 325.58 405.32 326.09 404.39 326.39C400.03 327.79 395.51 324.54 395.39 319.28H395.38Z" fill="#EA00A4"/>
<path d="M366.99 338.039C363.53 338.179 360.32 335.159 360.26 331.709C360.19 328.269 363.1 325.189 366.53 325.059C369.99 324.919 373.2 327.939 373.26 331.389C373.33 334.829 370.42 337.909 366.99 338.039Z" fill="#EA00A4"/>
<path d="M485.43 207.039C488.92 206.899 491.94 209.679 492.11 213.189C492.28 216.719 489.38 219.819 485.84 219.899C482.33 219.979 479.34 217.169 479.23 213.669C479.12 210.169 481.92 207.169 485.43 207.029V207.039Z" fill="#EA00A4"/>
<path d="M425.82 266.019C429.27 265.869 432.47 268.859 432.57 272.319C432.67 275.729 429.79 278.989 426.35 278.959C422.66 278.919 420.02 277.149 419.73 272.099C419.56 269.129 422.54 266.169 425.82 266.019Z" fill="#EA00A4"/>
<path d="M523.98 191.64C522.55 191.75 521.26 191.36 520.05 190.6C518.71 189.76 518.13 188.74 518.43 187.03C518.7 185.46 518.5 183.79 518.42 182.18C518.37 181.19 518.72 180.5 519.47 179.89C521.73 178.07 524.88 177.89 527.33 179.5C529.73 181.08 530.83 183.96 530.1 186.72C529.35 189.56 526.9 191.52 523.98 191.64Z" fill="#EA00A4"/>
<path d="M551.31 153.87C551.44 157.53 548.84 160.34 545.21 160.47C541.56 160.59 538.76 157.97 538.64 154.34C538.53 150.76 541.12 147.96 544.67 147.82C548.34 147.67 551.17 150.26 551.31 153.88V153.87Z" fill="#EA00A4"/>
<path d="M441.099 341.119C441.209 344.589 439.099 347.669 435.929 348.799C435.039 349.119 434.469 349.009 433.999 348.109C431.939 344.129 430.429 339.939 429.139 335.659C428.869 334.749 429.409 334.439 430.089 334.129C435.119 331.849 440.919 335.529 441.099 341.119Z" fill="#EA00A4"/>
<path d="M353.929 345.629C354.019 349.119 351.299 351.979 347.789 352.089C344.229 352.199 341.359 349.429 341.289 345.849C341.219 342.379 343.979 339.539 347.499 339.469C350.979 339.389 353.829 342.129 353.929 345.639V345.629Z" fill="#EA00A4"/>
<path d="M532.43 168.149C532.54 171.599 529.78 174.549 526.33 174.659C522.87 174.769 519.93 172.019 519.82 168.569C519.71 165.119 522.46 162.169 525.92 162.059C529.38 161.949 532.32 164.699 532.43 168.149Z" fill="#EA00A4"/>
<path d="M394.34 300.799C394.41 304.139 391.6 307.109 388.26 307.209C384.87 307.309 381.82 304.389 381.8 301.029C381.78 297.679 384.64 294.729 387.95 294.689C391.3 294.649 394.26 297.479 394.33 300.799H394.34Z" fill="#EA00A4"/>
<path d="M447.429 235.379C450.739 235.239 453.789 238.089 453.899 241.409C454.009 244.729 451.139 247.769 447.819 247.839C444.529 247.909 441.599 245.179 441.419 241.879C441.249 238.589 444.079 235.519 447.419 235.379H447.429Z" fill="#EA00A4"/>
<path d="M369.439 321.319C366.109 321.449 363.219 318.779 363.059 315.429C362.899 312.069 365.689 309.089 369.069 309.019C372.419 308.949 375.279 311.659 375.379 314.989C375.479 318.319 372.789 321.199 369.449 321.329L369.439 321.319Z" fill="#EA00A4"/>
<path d="M428.44 249.8C431.91 249.72 434.51 252.26 434.57 255.79C434.63 259.25 432.08 261.83 428.53 261.88C425.13 261.93 422.56 259.41 422.48 255.96C422.39 252.48 424.91 249.88 428.44 249.8Z" fill="#EA00A4"/>
<path d="M488.029 202.829C484.579 202.939 481.889 200.389 481.799 196.929C481.709 193.559 484.249 190.889 487.629 190.779C491.079 190.669 493.769 193.219 493.859 196.679C493.949 200.049 491.409 202.719 488.029 202.829Z" fill="#EA00A4"/>
<path d="M408.65 300.51C408.11 302.77 408.73 305.49 408.3 308.18C408.18 308.94 407.85 309.31 407.22 309.59C404.61 310.72 401.32 309.82 399.51 307.47C397.59 304.98 397.66 301.56 399.68 299.13C401.55 296.89 404.93 296.16 407.49 297.33C408.83 297.94 408.55 299.06 408.66 300.51H408.65Z" fill="#EA00A4"/>
<path d="M356.07 328.909C356.17 332.189 353.51 335.009 350.22 335.099C346.93 335.189 344.13 332.509 344.06 329.219C343.99 325.999 346.61 323.229 349.84 323.109C353.13 322.989 355.96 325.629 356.07 328.909Z" fill="#EA00A4"/>
<path d="M390.36 278.369C393.54 278.279 396.42 281.039 396.44 284.179C396.46 287.329 393.81 290.099 390.69 290.179C387.51 290.269 384.63 287.509 384.61 284.369C384.59 281.219 387.24 278.449 390.36 278.369Z" fill="#EA00A4"/>
<path d="M521.02 194.809C525.06 194.689 528.26 197.949 528.12 202.059C528 205.879 524.5 208.909 520.61 208.609C519.43 208.519 518.87 208.049 518.86 206.769C518.84 203.609 518.69 200.449 518.59 197.299C518.53 195.169 518.82 194.879 521.01 194.809H521.02Z" fill="#EA00A4"/>
<path d="M528.469 157.979C524.499 158.099 521.489 154.329 522.489 150.499C522.929 148.819 523.849 147.729 525.679 147.479C526.939 147.309 528.199 147.019 529.419 146.709C530.699 146.379 531.519 146.839 532.349 147.569C534.169 149.199 534.779 151.779 533.919 154.059C533.059 156.329 530.889 157.899 528.479 157.969L528.469 157.979Z" fill="#EA00A4"/>
<path d="M392.659 336.94C392.559 331.22 398.389 327.6 403.109 330.07C403.899 330.48 404.259 330.89 403.869 331.92C402.509 335.51 400.839 338.93 398.919 342.25C398.319 343.29 397.649 343.45 396.649 342.89C394.169 341.51 392.829 339.42 392.659 336.94Z" fill="#EA00A4"/>
<path d="M454.97 224.899C455.08 228.629 454.02 230.269 451.13 230.919C448.4 231.529 445.62 230.159 444.52 227.659C443.35 224.989 444.24 221.909 446.63 220.349C448.93 218.849 452 219.229 453.99 221.119C455.18 222.249 454.85 223.649 454.97 224.889V224.899Z" fill="#EA00A4"/>
<path d="M431.14 245.179C427.95 245.269 425.35 242.809 425.26 239.619C425.17 236.429 427.63 233.839 430.82 233.749C434.01 233.659 436.61 236.109 436.7 239.309C436.79 242.499 434.33 245.089 431.14 245.179Z" fill="#EA00A4"/>
<path d="M484.57 180.169C484.53 177.009 487.09 174.429 490.28 174.409C493.44 174.389 496.01 176.959 496.01 180.149C496.01 183.249 493.5 185.779 490.38 185.829C487.21 185.879 484.62 183.349 484.58 180.169H484.57Z" fill="#EA00A4"/>
<path d="M458.809 300.049C458.949 300.749 458.449 301.219 457.309 301.279C453.459 301.499 449.889 298.399 449.529 294.449C449.169 290.539 452.159 286.809 455.999 286.379C456.729 286.299 457.389 286.279 457.479 287.309C457.819 291.419 458.149 295.519 458.819 300.039L458.809 300.049Z" fill="#EA00A4"/>
<path d="M336.859 343.119C336.989 346.729 333.539 349.759 330.029 349.139C329.129 348.979 328.489 348.619 328.049 347.799C327.289 346.369 326.489 344.959 325.639 343.579C325.049 342.619 325.129 341.739 325.599 340.789C326.789 338.349 329.469 337.009 332.119 337.569C334.739 338.119 336.759 340.489 336.859 343.119Z" fill="#EA00A4"/>
<path d="M423.809 295.979C422.809 295.959 421.899 295.859 421.789 294.479C421.619 292.479 421.319 290.489 421.129 288.489C421.009 287.319 421.049 286.149 420.779 284.979C420.389 283.339 420.709 282.909 422.309 282.599C424.969 282.079 427.209 282.899 428.889 284.989C430.619 287.139 430.889 289.579 429.729 292.069C428.589 294.519 426.519 295.719 423.829 295.979H423.809Z" fill="#EA00A4"/>
<path d="M358.21 312.519C358.32 315.529 355.76 318.279 352.73 318.399C349.71 318.509 346.96 315.949 346.85 312.929C346.74 309.919 349.3 307.169 352.33 307.049C355.35 306.939 358.1 309.499 358.21 312.519Z" fill="#EA00A4"/>
<path d="M477.069 194.139C477.189 197.089 474.679 199.819 471.689 199.969C468.689 200.119 465.869 197.489 465.819 194.479C465.759 191.499 468.309 188.809 471.279 188.719C474.249 188.629 476.959 191.159 477.079 194.139H477.069Z" fill="#EA00A4"/>
<path d="M338.84 326.799C338.93 329.949 336.64 332.329 333.46 332.389C330.39 332.449 328.02 330.189 327.94 327.079C327.85 323.929 330.14 321.549 333.32 321.489C336.39 321.429 338.76 323.689 338.84 326.799Z" fill="#EA00A4"/>
<path d="M398.42 267.47C398.51 270.54 396.23 272.94 393.16 273.04C390.02 273.14 387.61 270.84 387.55 267.67C387.49 264.63 389.8 262.25 392.89 262.17C395.95 262.1 398.34 264.38 398.43 267.47H398.42Z" fill="#EA00A4"/>
<path d="M457.72 208.4C457.81 211.44 455.47 213.92 452.42 213.99C449.42 214.06 446.99 211.79 446.87 208.8C446.75 205.73 449.04 203.25 452.09 203.14C455.16 203.03 457.62 205.33 457.72 208.39V208.4Z" fill="#EA00A4"/>
<path d="M474.97 210.849C475.06 214.019 472.53 216.789 469.35 216.989C468.11 217.069 467.37 216.749 467.18 215.259C466.87 212.869 466.31 210.489 464.24 208.869C463.45 208.249 463.98 207.749 464.36 207.259C465.83 205.359 468.52 204.589 470.91 205.369C473.22 206.119 474.91 208.399 474.98 210.849H474.97Z" fill="#EA00A4"/>
<path d="M438.799 222.679C438.839 225.579 436.319 228.159 433.469 228.139C430.589 228.119 428.119 225.709 428.089 222.889C428.049 219.989 430.569 217.409 433.419 217.429C436.299 217.449 438.769 219.859 438.799 222.679Z" fill="#EA00A4"/>
<path d="M373.869 287.21C373.059 287.21 372.159 287.04 371.509 286.2C371.359 286.01 371.149 285.87 370.959 285.73C368.169 283.76 367.649 281.17 369.529 278.62C371.259 276.27 374.689 275.78 377.049 277.54C378.809 278.85 379.589 281.23 378.949 283.35C378.279 285.56 376.279 287.12 373.859 287.2L373.869 287.21Z" fill="#EA00A4"/>
<path d="M473.709 172.54C476.659 172.44 478.929 174.55 479.029 177.48C479.129 180.43 477.019 182.69 474.079 182.8C471.129 182.9 468.859 180.79 468.759 177.86C468.659 174.91 470.769 172.65 473.709 172.54Z" fill="#EA00A4"/>
<path d="M504.64 205.81C501.26 205.86 498.27 203.11 497.99 199.69C497.72 196.44 500.33 193.25 503.64 192.78C504.43 192.67 504.93 192.78 505.09 193.75C505.56 196.5 505.94 199.27 506.21 202.05C506.26 202.59 506.24 203.14 506.35 203.67C506.69 205.35 506.35 205.79 504.66 205.81H504.64Z" fill="#EA00A4"/>
<path d="M335.959 315.359C333.209 315.419 330.799 313.129 330.739 310.389C330.679 307.639 332.979 305.239 335.719 305.169C338.469 305.109 340.879 307.399 340.939 310.139C340.999 312.889 338.699 315.289 335.959 315.349V315.359Z" fill="#EA00A4"/>
<path d="M459.829 191.76C459.899 194.43 457.629 196.85 454.959 196.96C452.239 197.08 449.739 194.74 449.679 192.02C449.609 189.29 451.989 186.83 454.699 186.81C457.379 186.8 459.769 189.1 459.839 191.76H459.829Z" fill="#EA00A4"/>
<path d="M408.5 286.669C408.55 288.339 408.58 290.019 408.66 291.689C408.71 292.639 408.3 292.989 407.38 293.049C404.05 293.269 401.01 290.439 400.9 286.939C400.79 283.429 403.6 280.429 406.95 280.399C407.98 280.399 408.36 280.799 408.36 281.789C408.36 283.409 408.45 285.039 408.5 286.659V286.669Z" fill="#EA00A4"/>
<path d="M440.739 205.909C440.839 208.719 438.849 210.849 436.059 210.939C433.259 211.029 431.139 209.029 431.059 206.219C430.989 203.479 432.949 201.379 435.669 201.269C438.489 201.149 440.639 203.119 440.739 205.909Z" fill="#EA00A4"/>
<path d="M381.13 265.059C381.2 267.849 379.16 269.939 376.34 269.989C373.56 270.039 371.48 267.989 371.44 265.169C371.4 262.459 373.41 260.389 376.16 260.309C378.96 260.229 381.07 262.239 381.13 265.049V265.059Z" fill="#EA00A4"/>
<path d="M519.239 217.96C519.179 216.04 519.149 214.11 519.049 212.19C518.999 211.17 519.369 210.9 520.369 211.09C523.399 211.67 525.859 214.64 525.949 217.91C526.029 221.17 523.689 224.29 520.719 225C519.789 225.22 519.439 224.97 519.419 224.04C519.379 222.02 519.299 219.99 519.239 217.97V217.96Z" fill="#EA00A4"/>
<path d="M402.139 234.479C402.189 236.989 400.239 239.019 397.709 239.079C395.139 239.149 393.079 237.139 393.069 234.549C393.059 232.049 395.039 230.049 397.569 230.019C400.069 229.989 402.089 231.959 402.139 234.479Z" fill="#EA00A4"/>
<path d="M461.74 175.319C461.84 177.839 459.94 179.919 457.44 180.029C454.86 180.149 452.75 178.189 452.68 175.619C452.61 173.109 454.55 171.059 457.06 170.979C459.58 170.899 461.64 172.809 461.74 175.319Z" fill="#EA00A4"/>
<path d="M338.22 289.049C340.81 288.999 342.81 290.969 342.84 293.589C342.86 296.109 340.92 298.079 338.37 298.129C335.78 298.179 333.78 296.209 333.75 293.589C333.73 291.069 335.67 289.099 338.22 289.049Z" fill="#EA00A4"/>
<path d="M501.09 283.649C501.1 281.389 502.53 278.929 505.4 277.299C506.31 276.789 506.83 276.979 506.74 278.089C506.42 282.219 506.81 286.349 506.8 290.479C506.8 292.009 506.29 292.209 504.98 291.449C502.66 290.089 501.2 287.539 501.09 283.649Z" fill="#EA00A4"/>
<path d="M437.969 193.829C435.519 193.739 433.529 191.639 433.659 189.279C433.799 186.879 435.819 184.959 438.139 185.049C440.589 185.139 442.579 187.239 442.449 189.599C442.309 191.999 440.289 193.919 437.969 193.829Z" fill="#EA00A4"/>
<path d="M480.859 161.219C480.899 163.149 479.659 165.009 477.839 165.729C475.969 166.469 473.929 166.019 472.559 164.549C471.199 163.099 470.899 160.979 471.749 159.189C472.199 158.249 472.889 157.849 473.889 158.049C475.669 158.389 477.449 158.739 479.209 159.139C480.459 159.429 480.829 159.949 480.849 161.209L480.859 161.219Z" fill="#EA00A4"/>
<path d="M319.07 303.299C320.86 303.269 322.57 304.359 323.28 306.029C324.03 307.799 323.7 309.409 322.48 310.839C321.29 312.219 319.35 312.599 317.62 312.069C315.96 311.559 315.79 310.189 315.55 308.849C315.45 308.269 315.48 307.669 315.46 307.079C315.39 304.719 316.71 303.349 319.07 303.309V303.299Z" fill="#EA00A4"/>
<path d="M361.719 363.82C360.099 363.71 358.089 364.16 356.069 363.77C355.139 363.59 355.069 363.25 355.319 362.48C356.139 359.99 358.729 358.1 361.539 357.99C364.459 357.88 367.139 359.53 368.199 362.04C368.669 363.16 368.259 363.61 367.149 363.65C365.469 363.7 363.799 363.75 361.729 363.82H361.719Z" fill="#EA00A4"/>
<path d="M344.53 355.889C348.15 355.739 351.14 358.199 351.67 361.449C351.92 362.989 351.64 363.269 350.09 363.029C346.78 362.529 343.59 361.609 340.51 360.309C339.37 359.829 339.26 359.239 340.02 358.339C341.3 356.829 342.92 356.039 344.53 355.889Z" fill="#EA00A4"/>
<path d="M340.619 272.919C342.879 272.849 344.699 274.559 344.749 276.819C344.809 279.079 343.069 280.869 340.809 280.909C338.609 280.949 336.839 279.269 336.759 277.079C336.669 274.819 338.369 272.989 340.629 272.919H340.619Z" fill="#EA00A4"/>
<path d="M404.01 217.789C404.07 220.019 402.43 221.749 400.19 221.829C397.89 221.899 396.14 220.219 396.11 217.909C396.08 215.689 397.75 213.989 400.01 213.939C402.24 213.899 403.96 215.549 404.01 217.789Z" fill="#EA00A4"/>
<path d="M428.2 305.35C428.17 307.84 427.22 309.9 425.12 311.38C424.31 311.95 423.99 311.84 423.85 310.77C423.42 307.37 422.88 303.99 422.41 300.59C422.33 300.03 422.07 299.29 422.62 298.93C423.14 298.59 423.77 299 424.28 299.27C426.72 300.54 427.96 302.6 428.19 305.35H428.2Z" fill="#EA00A4"/>
<path d="M325.509 290.949C325.619 293.069 323.849 294.989 321.719 295.049C319.639 295.109 317.799 293.409 317.689 291.329C317.579 289.199 319.349 287.289 321.479 287.229C323.559 287.169 325.399 288.869 325.509 290.949Z" fill="#EA00A4"/>
<path d="M440.399 169.179C442.439 169.119 444.339 170.909 444.389 172.939C444.449 174.979 442.659 176.869 440.619 176.929C438.579 176.989 436.679 175.199 436.629 173.169C436.569 171.129 438.359 169.239 440.399 169.179Z" fill="#EA00A4"/>
<path d="M381.09 228.219C383.13 228.159 385.03 229.949 385.08 231.979C385.14 234.019 383.35 235.909 381.31 235.969C379.27 236.029 377.37 234.239 377.32 232.209C377.26 230.169 379.05 228.279 381.09 228.219Z" fill="#EA00A4"/>
<path d="M563.17 208.579C563.08 205.929 564.95 202.819 567.55 201.729C568.39 201.369 568.91 201.419 568.73 202.539C568.1 206.399 567.43 210.259 566.86 214.129C566.69 215.249 566.28 215.099 565.68 214.539C564.1 213.049 563.24 211.229 563.18 208.589L563.17 208.579Z" fill="#EA00A4"/>
<path d="M557.739 241.209C558.349 238.569 559.509 236.309 562.009 234.949C562.379 234.749 562.819 234.339 563.199 234.659C563.399 234.829 563.349 235.399 563.289 235.759C562.639 239.719 561.959 243.669 561.299 247.629C561.259 247.869 561.269 248.149 560.979 248.229C560.499 248.369 560.249 248.009 559.999 247.719C558.339 245.859 557.679 243.649 557.749 241.189V241.199L557.739 241.209Z" fill="#EA00A4"/>
<path d="M560.43 225.519C560.57 222.439 561.88 219.849 564.9 218.289C565.19 218.139 565.62 217.929 565.85 218.039C566.26 218.229 566.1 218.749 566.04 219.099C565.39 223.059 564.73 227.009 564.04 230.959C563.84 232.089 563.26 231.579 562.84 231.149C561.38 229.649 560.59 227.829 560.44 225.519H560.43Z" fill="#EA00A4"/>
<path d="M565.879 192.599C565.849 189.139 567.699 186.239 570.299 185.189C571.059 184.879 571.489 184.799 571.309 185.899C570.689 189.769 570.149 193.659 569.529 197.529C569.339 198.739 568.659 197.999 568.299 197.669C566.689 196.199 565.869 194.349 565.879 192.599Z" fill="#EA00A4"/>
<path d="M456.93 279.209C456.98 280.699 457 281.879 457.05 283.059C457.08 283.939 456.69 284.129 455.97 283.719C453.74 282.479 452.48 280.559 452.27 278.039C452.04 275.329 453.08 273.149 455.29 271.539C455.93 271.069 456.42 271.099 456.4 272.049C456.35 274.559 457.12 277.009 456.92 279.219L456.93 279.209Z" fill="#EA00A4"/>
<path d="M568.5 175.969C568.4 173.259 570.16 170.309 572.52 169.189C573.23 168.849 573.86 168.719 573.7 169.809C573.18 173.449 572.56 177.079 572.06 180.719C571.9 181.909 571.5 181.599 570.89 181.079C569.56 179.929 568.57 177.829 568.5 175.979V175.969Z" fill="#EA00A4"/>
<path d="M472.86 227.529C472.79 229.919 471.82 231.759 469.85 233.039C469.11 233.519 468.64 233.419 468.65 232.419C468.68 229.319 467.97 226.259 468.06 223.149C468.1 221.669 468.38 221.469 469.66 222.229C471.68 223.429 472.71 225.239 472.86 227.519V227.529Z" fill="#EA00A4"/>
<path d="M377.09 297.849C377.17 300.879 375.52 303.229 373.27 303.909C372.36 304.189 371.95 304.009 372.11 302.969C372.55 300.109 372.57 297.229 372.63 294.349C372.66 293.049 372.95 292.839 374.09 293.459C376.02 294.509 376.98 296.189 377.09 297.849Z" fill="#EA00A4"/>
<path d="M408.09 273.25C408.09 273.4 408.12 273.55 408.1 273.69C408.02 274.34 408.49 275.24 407.81 275.6C407.11 275.97 406.42 275.3 405.84 274.88C402.52 272.51 402.58 267.44 405.94 265.17C406.3 264.93 406.67 264.58 407.14 264.76C407.69 264.96 407.55 265.5 407.55 265.91C407.55 268.37 407.82 270.81 408.09 273.24V273.25Z" fill="#EA00A4"/>
<path d="M519.75 234.669C519.7 232.899 519.65 231.119 519.58 229.349C519.54 228.389 519.83 228.189 520.68 228.719C524.56 231.159 524.78 237.809 521.06 240.509C520.3 241.059 519.93 241.009 519.91 239.989C519.87 238.219 519.81 236.439 519.75 234.669Z" fill="#EA00A4"/>
<path d="M354.89 299.339C354.95 301.289 354.43 301.619 352.66 300.689C350.74 299.679 349.78 298.079 349.82 295.879C349.86 293.849 350.85 292.429 352.55 291.439C353.54 290.859 354.02 291.039 354.11 292.319C354.28 294.669 354.62 296.999 354.89 299.339Z" fill="#EA00A4"/>
<path d="M346.56 260.459C346.61 262.379 345.21 263.839 343.29 263.889C341.37 263.939 339.91 262.539 339.86 260.619C339.81 258.699 341.21 257.239 343.13 257.189C345.05 257.139 346.51 258.539 346.56 260.459Z" fill="#EA00A4"/>
<path d="M405.85 201.2C405.85 203.05 404.29 204.57 402.44 204.54C400.65 204.5 399.18 203 399.17 201.21C399.17 199.36 400.73 197.84 402.58 197.87C404.37 197.91 405.84 199.41 405.85 201.2Z" fill="#EA00A4"/>
<path d="M324.179 277.89C322.389 277.96 320.949 276.59 320.919 274.8C320.889 273.07 322.219 271.69 323.939 271.62C325.729 271.55 327.169 272.92 327.199 274.71C327.229 276.43 325.899 277.82 324.179 277.89Z" fill="#EA00A4"/>
<path d="M575.1 156.039C575.28 158.709 574.6 161.299 574.45 163.939C574.41 164.659 574.06 164.669 573.61 164.279C570.24 161.299 570.55 156.099 574.05 153.429C574.73 152.909 575.02 153.229 575.04 153.969C575.06 154.659 575.08 155.349 575.11 156.039H575.1Z" fill="#EA00A4"/>
<path d="M386.72 215.269C386.8 217.049 385.54 218.409 383.77 218.469C381.99 218.529 380.65 217.259 380.6 215.489C380.56 213.779 381.77 212.459 383.48 212.369C385.26 212.269 386.64 213.509 386.72 215.279V215.269Z" fill="#EA00A4"/>
<path d="M459.79 162.989C458.2 163.039 456.43 161.909 455.9 160.539C455.64 159.879 455.7 159.329 456.47 159.169C458.47 158.749 460.46 158.209 462.51 158.049C463.56 157.969 463.93 158.409 463.76 159.449C463.43 161.399 461.75 162.929 459.8 162.989H459.79Z" fill="#EA00A4"/>
<path d="M423.419 203.289C423.479 205.539 421.979 207.399 420.029 207.799C419.099 207.989 418.429 207.849 418.609 206.679C418.939 204.509 419.259 202.339 419.649 200.179C419.799 199.359 420.479 199.599 420.939 199.829C422.469 200.579 423.319 201.829 423.419 203.289Z" fill="#EA00A4"/>
<path d="M507 262.56C506.96 265.99 506.93 269.42 506.88 272.85C506.88 273.13 506.98 273.5 506.6 273.6C506.27 273.69 506.08 273.4 505.87 273.2C502.97 270.52 503.12 264.72 506.15 262.14C506.37 261.95 506.57 261.65 506.9 261.78C507.23 261.92 507.13 262.28 507 262.56Z" fill="#EA00A4"/>
<path d="M322.09 324.529C322.06 325.699 321.64 326.949 320.67 327.949C319.96 328.679 319.59 328.489 319.3 327.499C318.62 325.189 318.11 322.839 317.54 320.509C317.24 319.309 317.89 319.499 318.56 319.659C320.45 320.129 322.03 322.219 322.1 324.519L322.09 324.529Z" fill="#EA00A4"/>
<path d="M493.19 169.13C490.03 169.28 487.28 166.69 487.34 163.85C487.36 162.94 487.55 162.52 488.55 163.13C490.41 164.26 492.1 165.59 493.75 167C494.21 167.39 495 167.79 494.7 168.51C494.44 169.14 493.61 169.04 493.2 169.13H493.19Z" fill="#EA00A4"/>
<path d="M418.14 220.259C418.11 219.179 418.06 218.089 418.04 217.009C418.02 216.019 418.53 215.909 419.26 216.349C420.74 217.239 421.48 218.629 421.49 220.289C421.49 221.939 420.8 223.349 419.34 224.279C418.61 224.739 418.25 224.519 418.23 223.659C418.21 222.529 418.16 221.389 418.13 220.259H418.14Z" fill="#EA00A4"/>
<path d="M345.289 241.409C346.739 241.369 347.819 242.409 347.829 243.869C347.829 245.259 346.829 246.289 345.439 246.329C343.989 246.369 342.909 245.329 342.899 243.869C342.899 242.479 343.899 241.449 345.289 241.409Z" fill="#EA00A4"/>
<path d="M395.65 256.33C394.17 256.3 392.86 255.83 391.8 254.75C391.57 254.52 391.24 254.26 391.41 253.87C391.55 253.55 391.91 253.61 392.2 253.6C394.37 253.53 396.54 253.46 398.71 253.41C399.03 253.41 399.47 253.3 399.59 253.74C399.69 254.1 399.43 254.39 399.19 254.65C398.24 255.68 397.04 256.19 395.65 256.33Z" fill="#EA00A4"/>
<path d="M328.77 258.049C328.79 259.299 327.81 260.309 326.55 260.329C325.29 260.349 324.29 259.369 324.27 258.109C324.25 256.859 325.23 255.849 326.49 255.829C327.75 255.809 328.75 256.789 328.77 258.049Z" fill="#EA00A4"/>
<path d="M363.85 262.379C363.85 264.379 363.29 265.539 362.14 266.389C361.57 266.819 361.11 266.769 361.08 265.919C361.02 264.099 360.97 262.269 360.93 260.449C360.93 260.049 361.06 259.569 361.39 259.409C361.85 259.179 362.21 259.619 362.52 259.919C363.37 260.739 363.86 261.739 363.84 262.379H363.85Z" fill="#EA00A4"/>
<path d="M387.98 198.949C388.04 200.159 387.14 201.149 385.93 201.199C384.72 201.259 383.73 200.359 383.68 199.149C383.62 197.939 384.52 196.949 385.73 196.899C386.94 196.839 387.93 197.739 387.98 198.949Z" fill="#EA00A4"/>
<path d="M396.23 346.179C394.77 348.629 392.71 350.459 390.82 352.409C390.31 352.939 390.2 352.379 390.19 351.959C390.15 349.369 393.43 346.159 396.23 346.179Z" fill="#EA00A4"/>
<path d="M367.14 215.139C365.91 215.079 365.18 214.529 365.13 213.339C365.08 212.169 365.72 211.469 366.89 211.409C368.06 211.359 368.76 211.999 368.82 213.169C368.88 214.359 368.18 214.949 367.13 215.129L367.14 215.139Z" fill="#EA00A4"/>
<path d="M503.9 187.689C501.4 186.519 500.02 182.879 501.08 180.779C501.18 180.569 501.25 180.289 501.58 180.329C501.88 180.369 501.92 180.639 502.01 180.859C502.87 182.999 503.33 185.239 503.91 187.679L503.9 187.689Z" fill="#EA00A4"/>
<path d="M425.329 187.069C425.269 188.649 424.689 189.779 423.399 190.469C423.029 190.669 422.599 190.999 422.179 190.619C421.809 190.289 422.099 189.879 422.209 189.529C422.609 188.329 423.029 187.129 423.489 185.949C423.639 185.569 423.699 184.979 424.219 184.989C424.709 184.999 424.879 185.529 425.019 185.939C425.169 186.349 425.239 186.779 425.309 187.069H425.329Z" fill="#EA00A4"/>
<path d="M469.219 247.94C469.129 245.16 469.059 242.68 468.979 240.14C471.069 241.6 471.269 245.48 469.219 247.94Z" fill="#EA00A4"/>
<g clip-path="url(#clip1_93_12406)">
<path d="M103.416 318.804C96.672 318.954 89.8394 317.177 83.8671 313.354C73.8372 306.958 66.2142 294.804 65.4569 276.314C64.4386 251.685 76.5302 230.974 94.2177 228.718C105.662 227.268 112.92 230.291 117.527 234.784C125.731 242.806 125.479 255.458 125.479 255.458L134.145 274.593C134.145 274.593 133.709 278.804 133.918 285.004C133.923 285.013 133.92 285.027 133.92 285.027C132.12 298.216 124.911 318.347 103.416 318.804Z" fill="#FFD4AD"/>
<path d="M133.918 285.004C133.707 278.811 134.145 274.593 134.145 274.593C134.513 276.225 134.587 280.137 133.918 285.004Z" fill="#160830"/>
<path d="M382.52 146.392C363.564 166.313 345.669 182.872 320.904 204.045C320.91 203.957 320.908 203.875 320.907 203.786C321.172 194.475 319.615 187.866 317.613 180.252C315.953 173.974 310.576 169.383 304.132 168.694C275.04 165.57 248.57 166.102 224.844 170.586C205.496 174.242 187.202 182.144 170.994 193.341L145.168 212.158L118.54 231.559C166.257 179.782 205.303 136.981 245.059 98.2548C246.719 96.6404 248.422 95.0956 250.171 93.6065C274.034 73.3711 306.231 65.2913 336.889 72.7557C348.541 75.5844 359.379 79.1127 369.38 83.3652C394.551 94.0521 401.363 126.6 382.511 146.398L382.52 146.392Z" fill="#160830"/>
<path d="M250.173 93.5999C248.417 95.0873 246.721 96.6338 245.06 98.2482C205.305 136.975 166.259 179.775 118.542 231.552L110.553 182.118C108.156 169.557 112.352 156.645 121.663 147.876L138.214 132.297C137.422 131.956 136.608 131.365 135.781 130.46C130.943 125.176 131.631 116.687 137.308 111.486C142.984 106.292 151.506 106.365 156.341 111.633C157.052 112.406 157.53 113.123 157.843 113.822L167.345 104.877C172.134 100.372 177.467 96.6525 183.151 93.7451C183.146 93.7364 183.153 93.7381 183.176 93.7362C198.288 86.0114 215.974 84.0667 232.772 88.7453L250.175 93.5929L250.173 93.5999Z" fill="#F75BC8"/>
<path d="M185.893 92.4146C184.944 92.748 184.032 93.2017 183.174 93.7425L185.893 92.4146Z" fill="#160830"/>
<path d="M313.303 257.943C302.924 264.48 290.786 263.254 275.996 258.648C271.846 250.341 265.047 242.193 259.656 233.682C257.589 228.107 257.813 226.477 258.209 223.502C258.509 221.291 260.082 219.455 262.22 218.809C279.508 213.615 296.564 212.096 314.21 214.688C314.332 215.008 314.448 215.325 314.569 215.651C318.095 225.03 321.14 235.382 321.358 242.704C321.37 242.929 321.37 243.145 321.368 243.367C321.332 249.262 318.306 254.788 313.295 257.948L313.303 257.943Z" fill="white"/>
<path d="M259.67 233.715C259.67 233.715 259.661 233.691 259.663 233.684L259.67 233.715Z" fill="#160830"/>
<path d="M324.048 266.47C324.363 260.798 324.264 249.254 321.377 243.361C321.34 249.257 318.315 254.783 313.303 257.942C302.924 264.48 290.786 263.254 275.996 258.647C271.846 250.341 265.047 242.193 259.656 233.682C257.589 228.106 257.813 226.477 258.209 223.502C258.509 221.29 260.082 219.455 262.22 218.809C279.508 213.615 296.564 212.096 314.21 214.688C314.332 215.007 314.448 215.325 314.569 215.651L320.9 203.784C321.165 194.473 319.608 187.864 317.606 180.25C315.946 173.972 310.569 169.381 304.125 168.692C275.033 165.568 248.563 166.1 224.837 170.584C205.489 174.24 187.195 182.142 170.987 193.339L145.161 212.156C145.048 212.959 145.224 221.495 146.186 233.122C148.351 259.26 154.51 300.98 170.533 305.367C186.374 309.709 201.579 283.663 219.238 286.689C230.585 288.635 253.522 306.264 269.776 292.675C279.42 286.478 283.57 302.425 299.118 301.155C318.218 299.591 324.032 266.473 324.032 266.473L324.048 266.47ZM242.432 251.145C240.51 256.249 236.747 260.624 231.665 262.639C212.983 270.061 197.649 267.696 184.11 259.373C180.494 257.153 177.921 253.598 177.062 249.436C175.064 239.754 174.913 226.284 177.951 213.618C197.413 207.171 216.171 209.826 239.164 217.536C241.737 218.398 243.519 220.775 243.661 223.494C244.176 233.477 245.14 243.962 242.439 251.147L242.432 251.145Z" fill="#FFD4AD"/>
<path d="M242.432 251.145C240.51 256.249 236.747 260.624 231.665 262.639C212.983 270.061 197.649 267.696 184.11 259.373C180.494 257.153 177.921 253.598 177.062 249.436C175.064 239.754 174.913 226.284 177.951 213.618C197.413 207.171 216.171 209.826 239.164 217.536C241.737 218.398 243.519 220.775 243.661 223.494C244.176 233.477 245.14 243.962 242.439 251.147L242.432 251.145Z" fill="white"/>
<path d="M323.712 315.381C310.876 351.052 285.439 388.01 244.8 386.608C214.564 385.566 195.551 368.77 183.099 358.293C170.573 347.753 152.457 337.681 140.585 314.208C135.638 304.418 134.225 293.06 133.922 285.02C133.922 285.02 133.923 285.013 133.92 284.997C134.587 280.137 134.515 276.218 134.147 274.586L125.48 255.451C125.48 255.451 125.732 242.799 117.529 234.777L118.537 231.543L145.165 212.142C145.051 212.945 145.228 221.481 146.189 233.108C148.355 259.246 154.514 300.967 170.537 305.353C186.378 309.696 201.582 283.65 219.241 286.676C230.589 288.622 253.525 306.25 269.779 292.661C279.423 286.465 283.573 302.411 299.122 301.141C318.222 299.577 324.035 266.46 324.035 266.46C324.035 266.46 332.135 291.932 323.698 315.378L323.712 315.381Z" fill="#EA6C17"/>
<path d="M112.522 262.89C109.201 263.523 105.919 264.388 102.696 265.467C102.376 262.69 102.224 259.893 102.243 257.094C102.258 254.709 100.335 252.759 97.9425 252.742C95.557 252.727 93.6047 254.656 93.5897 257.041C93.566 260.959 93.845 264.884 94.407 268.773C90.3488 270.666 86.4539 272.895 82.8078 275.445C80.8498 276.816 80.3735 279.512 81.7389 281.468C82.3659 282.369 83.2776 282.954 84.2656 283.194C85.4287 283.476 86.7092 283.275 87.7639 282.537C90.4267 280.677 93.2447 279.002 96.1673 277.538C97.5094 282.707 99.3717 287.751 101.726 292.543C102.316 293.747 103.383 294.548 104.595 294.842C105.541 295.071 106.571 294.988 107.515 294.52C109.663 293.468 110.544 290.878 109.499 288.733C107.211 284.068 105.452 279.147 104.239 274.09C107.485 272.942 110.809 272.028 114.171 271.383C116.514 270.928 118.05 268.668 117.604 266.319C117.156 263.978 114.887 262.441 112.538 262.887L112.522 262.89Z" fill="#160830"/>
<path d="M225.655 174.826C248.51 170.508 274.755 169.892 303.668 172.987C308.311 173.484 312.236 176.847 313.421 181.348C315.443 189.004 316.857 195.103 316.582 203.908C316.529 205.623 317.489 207.199 319.037 207.946C320.579 208.683 322.417 208.447 323.719 207.332C349.916 184.941 367.283 168.692 385.661 149.38C395.619 138.92 399.642 124.795 396.713 110.636C393.816 96.6478 384.233 84.9605 371.09 79.3743C360.968 75.0701 349.81 71.4269 337.928 68.5351L337.886 68.5248C321.09 64.4477 303.351 64.7773 286.572 69.4643C272.951 73.2785 260.176 79.9018 249.166 88.8227L233.94 84.5775C217.45 79.9738 199.976 81.473 184.682 88.2637C184.617 88.2851 184.555 88.2995 184.499 88.3156C183.194 88.7703 181.934 89.4064 180.743 90.1558C174.837 93.2098 169.32 97.0776 164.386 101.725L156.49 109.154C150.202 103.148 140.528 102.683 134.404 108.288C131.241 111.169 129.492 115.195 129.481 119.613C129.468 123.638 130.924 127.544 133.59 130.714L118.712 144.719C108.28 154.529 103.641 168.779 106.302 182.851L113.39 226.763C107.934 224.236 101.336 223.451 93.6792 224.425C74.0085 226.934 60.0205 249.315 61.1403 276.49C61.8995 295.003 69.1727 307.65 78.8755 315.057C78.323 317.608 78.1878 320.304 78.5003 323.021C79.5728 332.205 85.5562 339.406 92.8155 341.168C94.4691 341.569 96.1908 341.691 97.9329 341.483C102.614 340.936 106.853 338.085 109.571 333.672C111.692 330.225 112.77 326.059 112.731 321.725C118.885 319.881 124.124 316.242 128.367 310.834C129.905 308.871 131.24 306.762 132.388 304.57C133.436 308.474 134.842 312.406 136.735 316.159C146.592 335.649 160.733 346.44 172.089 355.108C175.032 357.351 177.804 359.47 180.318 361.586L181.451 362.543C191.743 371.221 206.227 383.445 227.332 388.568C232.671 389.864 238.433 390.707 244.658 390.92C264.519 391.602 282.403 383.86 297.803 367.89C313.112 352.017 322.563 331.361 327.788 316.838C336.616 292.3 328.523 266.251 328.174 265.15C327.574 263.253 325.752 262.017 323.762 262.143C321.778 262.277 320.138 263.748 319.789 265.703C318.316 274.002 311.678 295.755 298.784 296.816C292.705 297.314 288.949 294.57 284.971 291.668C283.263 290.423 281.398 289.058 279.328 288.11C284.511 280.022 285.009 272.347 283.077 265.054C293.825 267.545 305.318 268.065 315.619 261.575C322.076 257.505 325.939 250.21 325.703 242.535C325.428 233.611 321.506 221.615 318.272 213.115C317.714 211.652 316.404 210.6 314.857 210.373C296.908 207.744 279.288 209.141 260.991 214.639C260.503 214.787 260.028 214.969 259.575 215.185C258.639 214.58 257.429 213.937 255.964 213.463C255.685 211.007 255.771 208.513 256.313 205.974C256.803 203.682 255.37 201.421 253.107 200.872C253.065 200.861 253.023 200.851 252.988 200.843C250.653 200.343 248.354 201.839 247.854 204.173C247.191 207.269 247.039 210.28 247.269 213.214C245.379 213.571 243.87 214.073 242.838 214.475C242.135 214.037 241.368 213.68 240.552 213.408C213.855 204.45 195.34 203.301 176.682 209.46C176.377 209.557 176.086 209.686 175.811 209.842C175.776 209.863 175.741 209.884 175.706 209.906L150.027 225.672C149.684 219.781 149.602 215.719 149.651 214.781C149.669 214.585 149.671 214.393 149.665 214.206L173.517 196.824C189.655 185.699 207.199 178.29 225.677 174.794L225.655 174.826ZM114.802 181.302C112.669 170.133 116.343 158.815 124.63 151.028L143.134 133.609L158.85 118.813C158.85 118.813 158.85 118.813 158.859 118.808L170.178 108.153C169.934 116.342 173.429 126.276 180.317 136.353C180.948 137.27 181.863 137.87 182.865 138.113C184.014 138.392 185.277 138.202 186.327 137.485C188.3 136.14 188.806 133.444 187.459 131.477C179.82 120.306 176.908 109.163 180.043 103.093C180.825 101.584 182.74 99.23 185.02 97.6918C199.223 90.4435 215.928 88.5648 231.601 92.9258L241.498 95.6842C205.25 131.027 169.178 170.195 127.446 215.503L121.39 222.081L114.83 181.435C114.824 181.396 114.819 181.358 114.808 181.311L114.802 181.302ZM102.19 329.143C100.851 331.325 98.9772 332.657 96.9153 332.899C92.3336 333.433 87.8362 328.455 87.0818 322.026C86.9998 321.294 86.9703 320.56 86.9827 319.836C89.1017 320.766 91.2753 321.501 93.4702 322.026C96.7985 322.834 100.183 323.196 103.502 323.127C103.673 323.124 103.848 323.107 104.019 323.104C103.849 325.332 103.227 327.436 102.183 329.141L102.19 329.143ZM299.486 305.45C311.259 304.481 318.582 294.182 322.904 284.506C323.614 293.045 323.301 303.747 319.645 313.919C313.787 330.195 299.056 363.032 272.075 376.428L269.392 363.426C268.907 361.083 266.623 359.58 264.28 360.064C261.936 360.548 260.432 362.831 260.917 365.174L263.919 379.737C259.972 380.989 255.807 381.825 251.4 382.157L250.131 361.436C249.983 359.049 247.937 357.239 245.549 357.386C243.161 357.534 241.35 359.586 241.499 361.966L242.742 382.184C238.554 381.924 234.594 381.334 230.851 380.492L232.326 366.252C232.569 363.878 230.844 361.753 228.471 361.504C226.096 361.261 223.971 362.985 223.721 365.357L222.41 378.064C206.803 372.607 195.42 363.012 187.045 355.942L185.905 354.983C183.232 352.732 180.376 350.556 177.353 348.249C166.141 339.69 153.432 329.996 144.468 312.272C139.947 303.327 138.602 292.787 138.297 285.213C138.949 280.172 138.873 275.992 138.422 273.814C138.415 273.782 138.41 273.744 138.403 273.712C138.406 273.698 138.395 273.681 138.392 273.665C138.386 273.627 138.367 273.585 138.361 273.547C138.338 273.459 138.314 273.372 138.291 273.285C138.27 273.22 138.247 273.163 138.225 273.098C138.197 273.032 138.177 272.96 138.147 272.901C138.113 272.826 138.079 272.751 138.046 272.676C138.021 272.626 137.996 272.575 137.969 272.532C137.923 272.446 137.876 272.368 137.828 272.29C137.807 272.255 137.78 272.211 137.759 272.176C137.704 272.096 137.648 272.023 137.593 271.943C137.565 271.907 137.543 271.872 137.513 271.842C137.457 271.769 137.392 271.702 137.334 271.636C137.298 271.597 137.263 271.559 137.233 271.53C137.173 271.471 137.112 271.419 137.052 271.36C137.01 271.32 136.96 271.278 136.916 271.245C136.86 271.202 136.804 271.158 136.741 271.113C136.684 271.07 136.626 271.034 136.57 270.99C136.519 270.956 136.461 270.919 136.402 270.89C136.337 270.852 136.272 270.814 136.207 270.776C136.154 270.748 136.094 270.719 136.042 270.691C135.975 270.66 135.901 270.628 135.835 270.597C135.773 270.574 135.705 270.55 135.644 270.528C135.575 270.504 135.514 270.482 135.446 270.458C135.368 270.439 135.291 270.42 135.214 270.402C135.158 270.388 135.095 270.373 135.039 270.359C134.948 270.337 134.861 270.331 134.768 270.315C134.726 270.305 134.691 270.297 134.647 270.294C134.633 270.29 134.626 270.288 134.612 270.285C134.524 270.279 134.437 270.272 134.348 270.273C134.288 270.273 134.231 270.267 134.171 270.267C134.105 270.266 134.036 270.271 133.968 270.277C133.886 270.279 133.804 270.282 133.727 270.293C133.682 270.297 133.634 270.307 133.58 270.316C133.481 270.329 133.381 270.342 133.287 270.364C133.28 270.362 133.264 270.366 133.255 270.371C133.224 270.378 133.191 270.393 133.152 270.398C133.058 270.42 132.962 270.448 132.873 270.479C132.817 270.495 132.767 270.52 132.711 270.536C132.638 270.562 132.557 270.587 132.482 270.621C132.416 270.65 132.35 270.678 132.289 270.715C132.23 270.745 132.172 270.768 132.12 270.8C132.05 270.843 131.981 270.885 131.911 270.927C131.866 270.961 131.815 270.986 131.77 271.019C131.699 271.069 131.634 271.12 131.563 271.169C131.518 271.203 131.472 271.236 131.434 271.272C131.37 271.323 131.312 271.376 131.253 271.435C131.206 271.476 131.167 271.518 131.12 271.559C131.069 271.613 131.019 271.668 130.97 271.715C130.92 271.77 130.878 271.819 130.835 271.875C130.793 271.925 130.759 271.975 130.717 272.025C130.672 272.088 130.627 272.151 130.582 272.214C130.547 272.265 130.521 272.311 130.494 272.364C130.454 272.436 130.407 272.506 130.375 272.579C130.347 272.632 130.319 272.685 130.299 272.739C130.266 272.813 130.233 272.886 130.201 272.96C130.178 273.021 130.156 273.083 130.132 273.151C130.108 273.219 130.086 273.281 130.062 273.349C130.043 273.426 130.023 273.51 130.004 273.587C129.99 273.643 129.977 273.699 129.963 273.755C129.941 273.846 129.931 273.948 129.916 274.041C129.908 274.076 129.899 274.111 129.898 274.147C129.894 274.161 129.893 274.198 129.893 274.228C129.891 274.235 129.89 274.242 129.888 274.249C129.814 274.98 129.449 279.023 129.633 284.772C128.748 291.047 126.533 299.225 121.601 305.512C116.983 311.393 111.024 314.331 103.379 314.492C98.7929 314.588 94.154 313.677 89.8435 311.689C91.0665 310.257 92.5714 309.376 94.1982 309.185C96.5729 308.909 98.2737 306.763 97.9897 304.387C97.7127 302.013 95.5657 300.312 93.1893 300.596C89.0497 301.082 85.2531 303.365 82.5514 306.944C75.5101 300.769 70.423 290.671 69.8242 276.143C68.8895 253.493 79.6373 234.954 94.814 233.016C103.115 231.953 109.57 233.423 113.992 237.367C121.236 243.836 121.201 255.169 121.199 255.391C121.154 257.776 123.051 259.742 125.435 259.794C127.828 259.841 129.801 257.946 129.846 255.562C129.851 255.296 129.883 252.507 129.155 248.688L142.522 240.481C143.1 246.354 143.866 252.734 144.897 259.156C149.801 289.875 157.835 306.357 169.446 309.539C169.622 309.581 169.802 309.633 169.977 309.675C179.647 312.022 188.344 305.937 196.755 300.05C204.334 294.747 211.487 289.733 218.561 290.946C221.161 291.391 225.044 293.061 229.15 294.822C241.109 299.965 258.481 307.416 272.173 296.342C272.181 296.337 272.197 296.333 272.206 296.328C274.3 294.975 275.24 295.262 279.91 298.673C284.272 301.853 290.248 306.212 299.536 305.455L299.486 305.45ZM263.471 222.947C279.67 218.083 295.263 216.661 311.075 218.615C314.763 228.701 316.877 237.232 317.048 242.822C317.195 247.442 314.875 251.834 310.996 254.274C303.183 259.194 293.82 259.436 278.961 255.021C276.288 250.047 272.908 245.266 269.66 240.672C267.615 237.787 265.605 234.94 263.772 232.1C262.049 227.461 262.172 226.526 262.503 224.062C262.571 223.538 262.952 223.096 263.473 222.94L263.471 222.947ZM237.782 221.637C238.661 221.932 239.282 222.765 239.336 223.705C239.394 224.81 239.451 225.921 239.514 227.034C239.981 235.411 240.466 244.081 238.381 249.613C236.776 253.874 233.745 257.158 230.067 258.617C213.931 265.025 200.046 264.087 186.37 255.686C183.704 254.045 181.899 251.516 181.295 248.565C179.373 239.212 179.525 227.337 181.635 216.997C197.635 212.306 214.14 213.702 237.789 221.638L237.782 221.637ZM171.996 222.349C170.82 231.899 171.077 241.842 172.815 250.304C173.895 255.544 177.182 260.191 181.836 263.057C187.182 266.342 192.623 268.657 198.2 270.011C209.278 272.7 220.867 271.575 233.258 266.653C239.195 264.297 244.009 259.197 246.471 252.66C249.202 245.415 248.665 235.828 248.15 226.549C248.09 225.452 248.03 224.354 247.968 223.264C247.948 222.829 247.89 222.392 247.821 221.975C248.177 221.883 248.561 221.798 248.981 221.722C251.795 230.394 257.406 238.335 262.593 245.669C274.12 261.975 280.664 272.643 270.331 285.867C260.977 297.838 248.222 293.621 232.52 286.872C227.729 284.812 223.592 283.029 219.971 282.417C209.392 280.605 200.015 287.171 191.739 292.957C184.491 298.029 177.621 302.822 171.681 301.188C168.154 300.22 159.318 294.136 153.525 258.61C152.212 250.54 151.308 242.435 150.712 235.415L171.997 222.342L171.996 222.349ZM141.662 230.822L126.428 240.178C125.456 238.066 124.2 235.936 122.59 233.951L141.095 220.47C141.195 223.269 141.377 226.799 141.667 230.83L141.662 230.822ZM168.53 189.768C168.53 189.768 168.467 189.812 168.439 189.835L151.437 202.227C186.004 164.763 216.993 131.615 248.069 101.352C249.109 100.336 250.178 99.3564 251.256 98.4016L259.373 100.661C261.685 101.319 264.062 99.9602 264.702 97.6603C265.342 95.3605 264 92.9726 261.699 92.3325L259.593 91.7471C281.7 76.0255 309.258 70.4911 335.842 76.9446L335.884 76.9548C347.313 79.729 358.015 83.232 367.707 87.3502C378.401 91.897 385.883 101.027 388.249 112.401C390.6 123.742 387.373 135.049 379.404 143.425C362.889 160.779 347.179 175.642 324.952 194.888C324.398 189.346 323.217 184.49 321.811 179.157C319.71 171.214 312.796 165.278 304.609 164.403C274.851 161.215 247.752 161.861 224.064 166.339C204.381 170.062 185.705 177.945 168.556 189.782L168.53 189.768Z" fill="#160830" stroke="#160830" stroke-width="2"/>
<g clip-path="url(#clip2_93_12406)">
<path d="M196.267 244.566C195.433 244.364 194.645 243.913 194.035 243.216C192.461 241.417 192.641 238.687 194.433 237.112C200.371 231.907 210.443 227.216 224.76 234.445C226.896 235.52 227.748 238.122 226.673 240.257C225.598 242.392 222.995 243.244 220.859 242.169C212.604 237.999 206.021 238.463 200.141 243.615C199.039 244.579 197.584 244.886 196.267 244.566Z" fill="#160830"/>
<path d="M281.793 242.986C280.96 242.784 280.171 242.333 279.561 241.636C277.987 239.837 278.168 237.107 279.96 235.532C284.172 231.844 291.296 228.507 301.357 233.583C303.493 234.658 304.345 237.26 303.27 239.395C302.195 241.53 299.592 242.382 297.456 241.307C291.289 238.193 287.92 240.06 285.667 242.035C284.565 242.999 283.111 243.306 281.793 242.986Z" fill="#160830"/>
</g>
<g clip-path="url(#clip3_93_12406)">
<path d="M232.808 325.298C220.02 322.194 209.784 315.577 202.943 305.765C201.578 303.809 202.061 301.115 204.024 299.752C205.982 298.381 208.677 298.864 210.048 300.829C222.687 318.969 246.512 319.523 259.591 318.248C261.97 318.017 264.085 319.754 264.317 322.132C264.548 324.51 262.811 326.625 260.432 326.856C250.315 327.849 241.032 327.302 232.806 325.305L232.808 325.298Z" fill="#160830"/>
<path d="M224.952 340.666C219.038 339.23 213.273 336.355 208.75 332.431C206.941 330.864 206.751 328.133 208.316 326.332C209.881 324.531 212.615 324.334 214.416 325.899C219.719 330.495 227.179 333.233 233.883 333.035C236.267 332.962 238.265 334.849 238.331 337.238C238.396 339.628 236.518 341.619 234.128 341.684C231.124 341.771 228.014 341.409 224.945 340.664L224.952 340.666Z" fill="#160830"/>
</g>
<g clip-path="url(#clip4_93_12406)">
<g clip-path="url(#clip5_93_12406)">
<path d="M185.376 200.822C184.051 200.501 182.906 199.563 182.369 198.201C181.491 195.978 182.583 193.468 184.806 192.592C203.086 185.391 222.307 186.964 241.948 197.265C244.061 198.371 244.88 200.988 243.765 203.106C242.657 205.225 240.041 206.037 237.921 204.929C220.367 195.72 204.034 194.322 187.971 200.644C187.11 200.984 186.202 201.023 185.369 200.821L185.376 200.822Z" fill="#160830"/>
<path d="M269.674 207.816C268.616 207.559 267.66 206.911 267.034 205.914C265.76 203.891 266.371 201.221 268.392 199.953C280.625 192.264 295.014 190.973 311.136 196.11C313.416 196.834 314.673 199.268 313.942 201.546C313.22 203.818 310.785 205.074 308.505 204.35C294.717 199.957 283.11 200.915 272.99 207.271C271.957 207.917 270.76 208.079 269.667 207.814L269.674 207.816Z" fill="#160830"/>
</g>
</g>
</g>
</g>
<defs>
<clipPath id="clip0_93_12406">
<rect width="648.93" height="455.14" fill="white"/>
</clipPath>
<clipPath id="clip1_93_12406">
<rect width="310.497" height="353.655" fill="white" transform="translate(115.428 6) rotate(13.6448)"/>
</clipPath>
<clipPath id="clip2_93_12406">
<rect width="107.205" height="36.1634" fill="white" transform="translate(200.594 208.403) rotate(13.6448)"/>
</clipPath>
<clipPath id="clip3_93_12406">
<rect width="65.2043" height="36.286" fill="white" transform="translate(203.312 298.073) rotate(13.6448)"/>
</clipPath>
<clipPath id="clip4_93_12406">
<rect width="201.172" height="93.7064" fill="white" transform="translate(161.222 129.121) rotate(13.6448)"/>
</clipPath>
<clipPath id="clip5_93_12406">
<rect width="129.457" height="34.4263" fill="white" transform="translate(189.286 166.346) rotate(13.6448)"/>
</clipPath>
</defs>
</svg>
